<?xml version="1.0" encoding="UTF-8" standalone="no"?>
<!DOCTYPE svg PUBLIC "-//W3C//DTD SVG 1.1//EN" "http://www.w3.org/Graphics/SVG/1.1/DTD/svg11.dtd">
<svg width="100%" height="100%" viewBox="0 0 512 512" version="1.1" xmlns="http://www.w3.org/2000/svg" xmlns:xlink="http://www.w3.org/1999/xlink" xml:space="preserve" xmlns:serif="http://www.serif.com/" style="fill-rule:evenodd;clip-rule:evenodd;stroke-linejoin:round;stroke-miterlimit:2;">
    <g>
        <path d="M172.816,91.324C168.473,91.324 164.461,88.492 163.156,84.117C161.566,78.781 164.605,73.164 169.941,71.574C195.766,63.879 225.375,59.813 255.563,59.813C285.742,59.813 315.379,63.879 341.254,71.574C346.594,73.16 349.637,78.777 348.047,84.113C346.461,89.453 340.855,92.496 335.508,90.906C311.469,83.762 283.824,79.98 255.563,79.98C227.297,79.98 199.684,83.762 175.699,90.906C174.742,91.188 173.77,91.324 172.816,91.324Z" style="fill:rgb(81,80,80);fill-rule:nonzero;"/>
        <path d="M171.766,71.074C194.105,64.605 219.168,60.809 244.957,59.992C248.477,59.875 252.016,59.813 255.563,59.813C259.109,59.813 262.645,59.875 266.168,59.992C291.988,60.809 317.105,64.613 339.516,71.098C343.414,70.656 346.859,67.945 348.047,63.945C349.637,58.609 346.594,52.992 341.254,51.406C315.379,43.711 285.742,39.645 255.563,39.645C225.375,39.645 195.766,43.715 169.941,51.406C164.605,53 161.566,58.613 163.156,63.949C164.355,67.969 167.84,70.656 171.766,71.074Z" style="fill:rgb(81,80,80);fill-rule:nonzero;"/>
        <path d="M169.941,51.41C195.766,43.715 225.375,39.648 255.563,39.648C285.742,39.648 315.379,43.715 341.254,51.41C341.609,51.516 341.922,51.684 342.258,51.82C320.684,23.035 289.852,5 255.602,5C221.352,5 190.523,23.035 168.949,51.816C169.277,51.68 169.59,51.516 169.941,51.41Z" style="fill:rgb(232,230,230);fill-rule:nonzero;"/>
        <path d="M167.133,283.652C175.035,281.664 182.84,279.305 190.52,276.586L201.086,271.375C200.836,272.234 201.148,273.184 201.957,273.664L222.395,285.926C232.578,292.035 244.23,295.262 256.105,295.262C267.98,295.262 279.637,292.035 289.82,285.926L310.258,273.664C310.898,273.281 311.207,272.602 311.203,271.91L321.742,277.105C328.719,279.48 335.793,281.566 342.941,283.367L374.152,291.223C370.695,166.113 346.578,101.766 341.996,90.613C339.988,91.387 337.734,91.566 335.512,90.902C311.473,83.758 283.828,79.98 255.562,79.98C227.297,79.98 199.687,83.758 175.703,90.902C174.742,91.191 173.773,91.324 172.816,91.324C171.562,91.324 170.348,91.066 169.207,90.625C164.609,101.809 140.508,166.16 137.051,291.227L167.133,283.652Z" style="fill:rgb(232,230,230);fill-rule:nonzero;"/>
        <path d="M255.602,249.938C214.344,249.938 180.586,208.113 180.586,166.855L180.586,279.867C183.918,278.836 187.23,277.75 190.52,276.586L201.086,271.375C200.836,272.234 201.148,273.184 201.957,273.664L222.395,285.926C232.578,292.035 244.23,295.262 256.105,295.262C267.98,295.262 279.637,292.035 289.82,285.926L310.258,273.664C310.898,273.281 311.207,272.602 311.203,271.91L321.742,277.105C324.684,278.105 327.648,279.027 330.621,279.926L330.621,166.859C330.617,208.117 296.859,249.938 255.602,249.938Z" style="fill:rgb(232,230,230);fill-rule:nonzero;"/>
        <path d="M416.184,493.137L406.59,320.945C405.867,307.941 396.773,296.922 384.141,293.738L342.938,283.367C335.789,281.566 328.715,279.48 321.734,277.105L311.195,271.91C311.203,272.602 310.891,273.281 310.25,273.664L289.813,285.926C279.629,292.035 267.977,295.262 256.102,295.262C244.227,295.262 232.574,292.035 222.387,285.926L201.949,273.664C201.141,273.184 200.832,272.234 201.082,271.375L190.516,276.586C182.832,279.305 175.031,281.664 167.129,283.652L127.055,293.738C114.422,296.922 105.328,307.941 104.605,320.945L95.012,493.141C94.59,500.664 100.582,507 108.121,507L403.066,507C410.613,507 416.605,500.664 416.184,493.137Z" style="fill:rgb(232,230,230);fill-rule:nonzero;"/>
        <path d="M219.703,258.953L250.207,274.203C253.77,275.984 256.02,279.625 256.02,283.609C256.02,279.625 258.27,275.984 261.832,274.203L292.273,258.984C290.996,256.574 290.258,253.867 290.258,251.035L290.258,239.133C279.691,245.91 267.625,249.938 254.828,249.938C242.582,249.938 231.008,246.23 220.773,239.973L220.773,251.035C220.773,253.734 220.102,256.324 218.938,258.652C219.188,258.758 219.449,258.824 219.703,258.953Z" style="fill:rgb(183,140,111);fill-rule:nonzero;"/>
        <path d="M321.184,110.125C300.223,103.398 278.242,99.73 255.602,99.73C232.961,99.73 210.98,103.398 190.023,110.125C184.375,111.938 180.586,117.254 180.586,123.184L180.586,166.852C180.586,208.109 214.34,249.938 255.602,249.938C296.863,249.938 330.617,208.109 330.617,166.852L330.617,123.184C330.617,117.254 326.828,111.938 321.184,110.125Z" style="fill:rgb(192,154,128);fill-rule:nonzero;"/>
        <path d="M308.219,224.266C308.625,214.953 307.008,181.887 263.723,180.746C259.254,180.629 255.602,184.094 255.602,188.559L255.602,193.695C255.602,196.254 257.668,198.309 260.227,198.316C271.355,198.352 298.922,200.852 301.746,224.625C301.961,226.406 303.488,227.66 305.168,227.539C306.211,226.477 307.23,225.387 308.219,224.266Z" style="fill:rgb(124,41,46);fill-rule:nonzero;"/>
        <path d="M255.602,188.559C255.602,184.094 251.949,180.629 247.484,180.746C204.199,181.887 202.578,214.957 202.984,224.27C203.973,225.391 204.992,226.477 206.035,227.543C207.715,227.66 209.242,226.406 209.457,224.625C212.281,200.855 239.852,198.352 250.977,198.32C253.535,198.313 255.602,196.254 255.602,193.695L255.602,188.559Z" style="fill:rgb(124,41,46);fill-rule:nonzero;"/>
        <path d="M317.203,211.426C317.203,211.426 301.75,226.695 285.617,226.695C278.555,226.695 275.742,227.469 273.121,228.68C261.883,233.859 248.855,233.859 237.617,228.68C234.996,227.469 232.188,226.695 225.121,226.695C209.027,226.695 193.617,211.508 193.543,211.434C207.07,233.676 229.875,249.938 255.602,249.938C281.25,249.938 303.992,233.77 317.539,211.625L317.203,211.426Z" style="fill:rgb(124,41,46);fill-rule:nonzero;"/>
        <path d="M310.906,270.824L305.406,262.449C302.59,258.16 297.012,256.656 292.422,258.953L261.918,274.203C258.355,275.984 256.105,279.625 256.105,283.609L256.105,295.262C267.98,295.262 279.633,292.035 289.816,285.926L310.254,273.664C311.242,273.074 311.535,271.785 310.906,270.824Z" style="fill:rgb(232,230,230);fill-rule:nonzero;"/>
        <path d="M201.305,270.824L206.805,262.449C209.621,258.16 215.199,256.656 219.789,258.953L250.293,274.203C253.855,275.984 256.109,279.625 256.109,283.609L256.109,295.262C244.23,295.262 232.578,292.035 222.395,285.926L201.957,273.664C200.969,273.074 200.676,271.785 201.305,270.824Z" style="fill:rgb(232,230,230);fill-rule:nonzero;"/>
        <g>
            <path d="M338.406,96.328C336.961,96.328 335.508,96.121 334.082,95.695C310.496,88.688 283.348,84.98 255.559,84.98C227.773,84.98 200.652,88.688 177.125,95.695C175.719,96.113 174.27,96.324 172.816,96.324C166.199,96.324 160.254,91.895 158.363,85.547C155.992,77.578 160.543,69.16 168.512,66.785C194.793,58.953 224.891,54.813 255.559,54.813C286.223,54.813 316.348,58.953 342.68,66.781C346.543,67.93 349.727,70.512 351.645,74.055C353.563,77.598 353.988,81.68 352.836,85.539C351.691,89.402 349.109,92.586 345.57,94.504C343.332,95.715 340.883,96.328 338.406,96.328ZM255.559,74.977C284.297,74.977 312.438,78.828 336.934,86.109C338.234,86.496 339.613,86.359 340.805,85.711C341.996,85.063 342.867,83.988 343.254,82.688C343.641,81.387 343.5,80.012 342.852,78.816C342.207,77.625 341.133,76.754 339.832,76.367C314.41,68.809 285.27,64.813 255.563,64.813C225.852,64.813 196.734,68.809 171.371,76.367C168.688,77.168 167.148,80.008 167.949,82.691C168.727,85.301 171.613,86.902 174.277,86.109C198.711,78.828 226.82,74.977 255.559,74.977Z" style="fill:rgb(35,31,32);fill-rule:nonzero;"/>
            <path d="M339.516,76.098C339.043,76.098 338.574,76.031 338.125,75.898C316.219,69.559 291.285,65.789 266.008,64.988C259.031,64.758 252.082,64.758 245.125,64.988C219.883,65.785 195,69.551 173.152,75.875C172.531,76.055 171.883,76.113 171.234,76.043C165.152,75.398 160.105,71.211 158.367,65.379C155.992,57.41 160.547,48.992 168.516,46.617C194.797,38.785 224.895,34.648 255.563,34.648C286.223,34.648 316.348,38.785 342.684,46.617C346.543,47.766 349.727,50.348 351.645,53.891C353.562,57.434 353.988,61.512 352.84,65.375C351.113,71.188 346.102,75.387 340.074,76.066C339.887,76.086 339.699,76.098 339.516,76.098ZM255.559,54.813C259.117,54.813 262.742,54.875 266.332,54.992C291.984,55.805 317.352,59.598 339.766,65.965C341.422,65.496 342.75,64.211 343.25,62.52C343.641,61.219 343.496,59.844 342.852,58.648C342.203,57.457 341.129,56.586 339.828,56.199C314.406,48.641 285.266,44.645 255.559,44.645C225.848,44.645 196.734,48.641 171.367,56.199C168.684,56.996 167.145,59.836 167.945,62.523C168.449,64.215 169.797,65.492 171.48,65.949C193.848,59.586 219.164,55.801 244.797,54.988C248.379,54.875 252,54.813 255.559,54.813Z" style="fill:rgb(35,31,32);fill-rule:nonzero;"/>
            <path d="M342.254,56.82C341.609,56.82 340.953,56.695 340.328,56.434L339.707,56.16C314.406,48.645 285.27,44.648 255.559,44.648C225.887,44.648 196.809,48.633 171.461,56.176L170.871,56.434C168.789,57.309 166.387,56.672 165,54.891C163.617,53.113 163.594,50.625 164.945,48.82C188.199,17.793 221.242,0 255.602,0C289.961,0 323.004,17.793 346.258,48.82C347.609,50.625 347.586,53.113 346.203,54.891C345.23,56.137 343.762,56.82 342.254,56.82ZM255.559,34.648C280.645,34.648 305.379,37.422 327.965,42.715C307.746,21.758 282.055,10 255.602,10C229.152,10 203.461,21.754 183.246,42.707C205.785,37.414 230.484,34.648 255.559,34.648Z" style="fill:rgb(35,31,32);fill-rule:nonzero;"/>
            <path d="M256.105,300.262C243.324,300.262 230.781,296.785 219.82,290.211L199.383,277.953C199.336,277.926 199.285,277.895 199.238,277.863L192.73,281.07C192.555,281.156 192.375,281.234 192.191,281.301C184.395,284.059 176.375,286.484 168.355,288.504L138.273,296.074C136.758,296.457 135.148,296.109 133.926,295.129C132.703,294.148 132.012,292.652 132.055,291.09C135.531,165.395 159.758,100.465 164.582,88.727C165.617,86.207 168.477,84.98 171.008,85.961C172.168,86.406 173.234,86.422 174.277,86.113C198.715,78.828 226.824,74.98 255.563,74.98C284.301,74.98 312.441,78.832 336.938,86.113C338.254,86.508 339.441,86.242 340.195,85.949C342.73,84.973 345.586,86.199 346.621,88.715C351.441,100.453 375.672,165.371 379.148,291.09C379.191,292.652 378.5,294.148 377.281,295.129C376.059,296.109 374.449,296.457 372.934,296.074L341.719,288.219C334.469,286.395 327.203,284.25 320.129,281.844C319.922,281.773 319.723,281.691 319.527,281.594L312.523,278.141L292.395,290.215C281.434,296.785 268.887,300.262 256.105,300.262ZM205.957,270.234L224.965,281.637C234.371,287.277 245.137,290.262 256.105,290.262C267.074,290.262 277.844,287.277 287.246,281.637L306.559,270.055C306.945,269.086 307.629,268.246 308.539,267.676C310.008,266.754 311.859,266.656 313.414,267.426L323.66,272.477C330.379,274.754 337.277,276.789 344.16,278.52L368.953,284.762C365.223,174.953 345.629,114.238 338.863,96.305C337.254,96.359 335.652,96.16 334.086,95.695C310.5,88.687 283.352,84.98 255.566,84.98C227.781,84.98 200.656,88.687 177.133,95.695C175.57,96.156 173.961,96.363 172.348,96.316C165.578,114.254 145.988,174.988 142.258,284.762L165.918,278.805C173.543,276.887 181.164,274.59 188.578,271.973L198.883,266.891C200.656,266.016 202.789,266.273 204.305,267.547C205.145,268.254 205.715,269.203 205.957,270.234ZM167.133,283.652L167.152,283.652L167.133,283.652Z" style="fill:rgb(35,31,32);fill-rule:nonzero;"/>
            <path d="M256.105,300.262C243.324,300.262 230.781,296.785 219.82,290.211L199.383,277.953C199.332,277.926 199.285,277.895 199.234,277.863L192.73,281.07C192.555,281.156 192.375,281.234 192.188,281.301C189.043,282.414 185.73,283.508 182.063,284.641C180.551,285.113 178.898,284.836 177.617,283.891C176.34,282.949 175.582,281.453 175.582,279.867L175.582,166.855C175.582,164.094 177.82,161.855 180.582,161.855C183.348,161.855 185.582,164.094 185.582,166.855C185.582,211.547 222.547,244.938 255.602,244.938C288.648,244.938 325.613,211.547 325.617,166.859C325.617,164.098 327.855,161.859 330.617,161.859C333.379,161.859 335.617,164.098 335.617,166.859L335.617,279.926C335.617,281.508 334.867,282.996 333.598,283.941C332.324,284.883 330.688,285.168 329.168,284.711C326.508,283.906 323.355,282.938 320.125,281.84C319.918,281.77 319.719,281.688 319.523,281.59L312.52,278.137L292.391,290.211C281.434,296.785 268.887,300.262 256.105,300.262ZM205.957,270.234L224.965,281.637C234.371,287.277 245.137,290.262 256.105,290.262C267.074,290.262 277.844,287.277 287.246,281.637L306.559,270.055C306.945,269.086 307.629,268.246 308.539,267.68C310.008,266.754 311.855,266.66 313.414,267.426L323.656,272.477C324.316,272.699 324.969,272.918 325.617,273.129L325.617,207.059C312.238,233.684 286.566,254.937 255.602,254.937C224.641,254.937 198.969,233.68 185.586,207.059L185.586,273C186.605,272.656 187.598,272.312 188.574,271.969L198.875,266.891C200.652,266.016 202.781,266.27 204.301,267.543C205.145,268.254 205.715,269.203 205.957,270.234Z" style="fill:rgb(35,31,32);fill-rule:nonzero;"/>
            <path d="M255.602,219.922C246.68,219.922 238.367,215.504 233.367,208.102C231.82,205.813 232.422,202.707 234.711,201.16C237,199.617 240.109,200.215 241.652,202.504C244.793,207.148 250.004,209.922 255.602,209.922C261.195,209.922 266.406,207.148 269.547,202.504C271.09,200.215 274.199,199.613 276.488,201.16C278.777,202.707 279.379,205.813 277.832,208.102C272.836,215.504 264.523,219.922 255.602,219.922Z" style="fill:rgb(35,31,32);fill-rule:nonzero;"/>
            <path d="M293.16,142.156C292.367,142.156 291.563,141.969 290.816,141.57C289.637,140.945 286.875,140.211 282.977,140.211C279.328,140.211 276.41,140.895 275.141,141.57C272.703,142.871 269.672,141.945 268.379,139.508C267.082,137.066 268.004,134.039 270.445,132.742C273.469,131.137 278.035,130.211 282.977,130.211C287.918,130.211 292.484,131.133 295.512,132.742C297.949,134.039 298.875,137.066 297.578,139.504C296.684,141.195 294.949,142.156 293.16,142.156Z" style="fill:rgb(35,31,32);fill-rule:nonzero;"/>
            <path d="M218.043,142.156C216.254,142.156 214.523,141.195 213.625,139.504C212.328,137.066 213.254,134.039 215.695,132.742C218.719,131.133 223.285,130.211 228.227,130.211C233.168,130.211 237.738,131.133 240.762,132.742C243.199,134.039 244.125,137.066 242.828,139.508C241.531,141.945 238.504,142.871 236.066,141.57C234.793,140.895 231.875,140.211 228.227,140.211C224.328,140.211 221.566,140.945 220.387,141.57C219.641,141.969 218.836,142.156 218.043,142.156Z" style="fill:rgb(35,31,32);fill-rule:nonzero;"/>
            <path d="M229.039,161.848C225.723,161.848 223.039,159.16 223.039,155.848L223.039,154.734C223.039,151.422 225.723,148.734 229.039,148.734C232.352,148.734 235.039,151.422 235.039,154.734L235.039,155.848C235.039,159.16 232.352,161.848 229.039,161.848Z" style="fill:rgb(35,31,32);fill-rule:nonzero;"/>
            <path d="M282.418,162.703C279.105,162.703 276.418,160.016 276.418,156.703L276.418,155.59C276.418,152.273 279.105,149.59 282.418,149.59C285.734,149.59 288.418,152.273 288.418,155.59L288.418,156.703C288.418,160.016 285.734,162.703 282.418,162.703Z" style="fill:rgb(35,31,32);fill-rule:nonzero;"/>
            <path d="M357.805,509.18C355.043,509.18 352.805,506.941 352.805,504.18L352.805,392.648C352.805,389.887 355.043,387.648 357.805,387.648C360.566,387.648 362.805,389.887 362.805,392.648L362.805,504.18C362.805,506.941 360.566,509.18 357.805,509.18Z" style="fill:rgb(35,31,32);fill-rule:nonzero;"/>
            <path d="M153.398,509.18C150.637,509.18 148.398,506.941 148.398,504.18L148.398,392.648C148.398,389.887 150.637,387.648 153.398,387.648C156.16,387.648 158.398,389.887 158.398,392.648L158.398,504.18C158.398,506.941 156.16,509.18 153.398,509.18Z" style="fill:rgb(35,31,32);fill-rule:nonzero;"/>
            <path d="M403.074,512L108.129,512C103.168,512 98.367,509.934 94.957,506.328C91.547,502.723 89.75,497.816 90.027,492.863L99.621,320.664C100.469,305.395 111.008,292.625 125.84,288.891L165.914,278.805C173.539,276.887 181.16,274.59 188.574,271.973L198.879,266.891C200.652,266.016 202.785,266.273 204.301,267.547C205.145,268.254 205.715,269.203 205.957,270.234L224.965,281.637C234.371,287.277 245.137,290.262 256.105,290.262C267.074,290.262 277.844,287.277 287.246,281.637L306.559,270.051C306.945,269.086 307.633,268.242 308.543,267.676C310.012,266.75 311.855,266.656 313.41,267.426L323.656,272.477C330.379,274.754 337.273,276.785 344.16,278.52L385.367,288.891C400.199,292.625 410.734,305.391 411.586,320.664L421.176,492.859C421.453,497.813 419.656,502.723 416.246,506.324C412.836,509.934 408.035,512 403.074,512ZM199.234,277.863L192.73,281.07C192.555,281.156 192.375,281.234 192.188,281.297C184.391,284.059 176.375,286.48 168.355,288.504L128.281,298.59C117.715,301.246 110.207,310.344 109.602,321.219L100.008,493.414C99.887,495.672 100.668,497.813 102.219,499.453C103.773,501.094 105.867,501.996 108.125,501.996L403.07,501.996C405.328,501.996 407.426,501.094 408.98,499.453C410.531,497.813 411.316,495.668 411.191,493.414L401.602,321.223C400.996,310.344 393.488,301.246 382.922,298.59L341.719,288.215C334.465,286.391 327.203,284.246 320.129,281.84C319.922,281.77 319.723,281.688 319.527,281.59L312.523,278.137L292.391,290.211C281.434,296.785 268.887,300.262 256.105,300.262C243.324,300.262 230.781,296.785 219.82,290.211L199.383,277.953C199.332,277.922 199.285,277.891 199.234,277.863Z" style="fill:rgb(35,31,32);fill-rule:nonzero;"/>
            <path d="M256.105,507.965C253.344,507.965 251.105,505.727 251.105,502.965L251.105,295.262C251.105,292.496 253.344,290.262 256.105,290.262C258.867,290.262 261.105,292.496 261.105,295.262L261.105,502.965C261.105,505.727 258.867,507.965 256.105,507.965Z" style="fill:rgb(35,31,32);fill-rule:nonzero;"/>
            <path d="M256.02,288.609C253.254,288.609 251.02,286.371 251.02,283.609C251.02,281.508 249.852,279.617 247.969,278.676L217.582,263.484C217.359,263.402 217.207,263.348 217.055,263.285C215.762,262.762 214.746,261.723 214.254,260.414C213.758,259.109 213.836,257.656 214.461,256.41C215.328,254.68 215.77,252.871 215.77,251.035L215.77,239.973C215.77,238.164 216.746,236.496 218.324,235.609C219.902,234.723 221.832,234.762 223.379,235.707C233.395,241.832 243.977,244.937 254.824,244.937C266.023,244.937 277.34,241.477 287.555,234.922C289.098,233.937 291.051,233.867 292.652,234.742C294.258,235.621 295.254,237.305 295.254,239.133L295.254,251.035C295.254,252.961 295.738,254.848 296.688,256.645C297.316,257.836 297.441,259.227 297.031,260.512C296.617,261.793 295.707,262.855 294.504,263.457L264.063,278.676C262.184,279.617 261.016,281.508 261.016,283.609C261.02,286.371 258.781,288.609 256.02,288.609ZM225.168,256.098L252.441,269.73C253.766,270.395 254.965,271.223 256.02,272.191C257.07,271.227 258.273,270.395 259.598,269.73L285.98,256.539C285.504,254.73 285.258,252.875 285.258,251.035L285.258,247.684C275.535,252.449 265.16,254.938 254.828,254.938C244.852,254.938 235.113,252.723 225.773,248.344L225.773,251.035C225.77,252.746 225.57,254.441 225.168,256.098ZM217.457,263.422L217.461,263.422L217.457,263.422Z" style="fill:rgb(35,31,32);fill-rule:nonzero;"/>
            <path d="M255.602,254.938C209.805,254.938 175.586,208.434 175.586,166.855L175.586,123.184C175.586,115.004 180.773,107.844 188.492,105.363C232.477,91.258 278.73,91.258 322.711,105.363C330.434,107.84 335.621,115.004 335.621,123.184L335.621,166.855C335.617,208.434 301.398,254.938 255.602,254.938ZM255.602,104.734C234.102,104.734 212.547,108.148 191.547,114.887C187.98,116.031 185.586,119.367 185.586,123.184L185.586,166.855C185.586,211.547 222.551,244.938 255.602,244.938C288.652,244.938 325.621,211.543 325.621,166.855L325.621,123.184C325.621,119.363 323.223,116.027 319.656,114.883C298.652,108.148 277.105,104.734 255.602,104.734Z" style="fill:rgb(35,31,32);fill-rule:nonzero;"/>
            <path d="M304.941,232.547C300.809,232.547 297.285,229.43 296.781,225.215C294.441,205.539 270.426,203.348 260.211,203.316C254.91,203.305 250.602,198.984 250.602,193.695L250.602,188.559C250.602,185.07 251.969,181.816 254.449,179.398C256.961,176.953 260.332,175.676 263.852,175.746C280.367,176.184 293.09,181.063 301.66,190.254C312.906,202.313 313.484,218.211 313.211,224.484C313.16,225.625 312.723,226.715 311.969,227.57C310.922,228.758 309.844,229.906 308.742,231.035C307.887,231.906 306.742,232.441 305.523,232.527C305.328,232.543 305.133,232.547 304.941,232.547ZM308.219,224.266L308.238,224.266L308.219,224.266ZM260.602,193.32C279.914,193.449 294.281,199.52 301.582,210.125C300.301,205.738 298.094,201.094 294.348,197.074C287.676,189.918 277.324,186.109 263.59,185.742C262.77,185.727 261.992,186.016 261.43,186.559C261.055,186.93 260.602,187.57 260.602,188.559L260.602,193.32Z" style="fill:rgb(35,31,32);fill-rule:nonzero;"/>
            <path d="M206.266,232.547C206.07,232.547 205.879,232.543 205.68,232.527C204.461,232.441 203.313,231.91 202.461,231.035C201.359,229.91 200.281,228.758 199.234,227.574C198.477,226.715 198.039,225.625 197.988,224.484C197.715,218.211 198.297,202.316 209.543,190.258C218.113,181.066 230.832,176.184 247.352,175.75C250.926,175.664 254.242,176.953 256.75,179.398C259.234,181.816 260.602,185.07 260.602,188.563L260.602,193.695C260.602,198.988 256.289,203.305 250.992,203.32C240.777,203.348 216.758,205.539 214.418,225.215C213.918,229.43 210.395,232.547 206.266,232.547ZM247.703,185.742L247.613,185.742C233.875,186.105 223.527,189.918 216.855,197.074C213.109,201.094 210.902,205.738 209.621,210.125C216.918,199.52 231.289,193.449 250.602,193.32L250.602,188.559C250.602,187.574 250.152,186.93 249.773,186.559C249.23,186.031 248.496,185.742 247.703,185.742Z" style="fill:rgb(35,31,32);fill-rule:nonzero;"/>
            <path d="M255.602,254.938C229.648,254.938 204.852,239.645 189.273,214.031C187.961,211.871 188.461,209.074 190.441,207.512C192.418,205.945 195.258,206.102 197.055,207.875C197.195,208.012 211.281,221.695 225.121,221.695C232.898,221.695 236.363,222.594 239.715,224.137C249.664,228.723 261.078,228.723 271.031,224.137C274.383,222.594 277.844,221.695 285.621,221.695C297.168,221.695 309.801,211.715 313.691,207.867C315.309,206.27 317.801,205.961 319.758,207.125L320.09,207.32C321.242,208.004 322.07,209.121 322.391,210.418C322.715,211.715 322.5,213.09 321.805,214.23C306.215,239.723 281.469,254.938 255.602,254.938ZM216.746,230.613C228.293,239.82 241.789,244.938 255.602,244.938C269.488,244.938 283.066,239.758 294.66,230.441C291.738,231.223 288.703,231.695 285.621,231.695C279.051,231.695 277.023,232.387 275.215,233.219C262.605,239.035 248.137,239.031 235.527,233.219C233.719,232.383 231.691,231.695 225.121,231.695C222.273,231.695 219.461,231.293 216.746,230.613Z" style="fill:rgb(35,31,32);fill-rule:nonzero;"/>
            <path d="M256.105,300.262C253.344,300.262 251.105,298.023 251.105,295.262L251.105,283.609C251.105,277.695 254.395,272.375 259.684,269.73L290.188,254.48C297.043,251.051 305.383,253.297 309.59,259.703L315.086,268.078C316.133,269.664 316.488,271.641 316.063,273.492C315.641,275.348 314.461,276.973 312.832,277.949L292.391,290.211C281.434,296.785 268.887,300.262 256.105,300.262ZM296.945,262.883C296.172,262.883 295.391,263.059 294.66,263.426L264.156,278.676C262.277,279.617 261.105,281.508 261.105,283.609L261.105,290.051C270.324,289.289 279.277,286.414 287.246,281.637L305.023,270.973L301.23,265.195C300.254,263.707 298.621,262.883 296.945,262.883ZM306.727,273.57L306.746,273.57L306.727,273.57Z" style="fill:rgb(35,31,32);fill-rule:nonzero;"/>
            <path d="M256.105,300.262C243.324,300.262 230.781,296.785 219.82,290.211L199.383,277.953C197.75,276.977 196.57,275.352 196.148,273.496C195.727,271.645 196.078,269.672 197.125,268.078L202.621,259.707C206.828,253.301 215.168,251.051 222.023,254.48L252.527,269.734C257.816,272.379 261.105,277.695 261.105,283.613L261.105,295.262C261.105,298.023 258.867,300.262 256.105,300.262ZM207.188,270.973L224.965,281.637C232.934,286.418 241.883,289.289 251.105,290.051L251.105,283.609C251.105,281.508 249.938,279.617 248.055,278.676L217.551,263.426C215.23,262.266 212.406,263.023 210.98,265.195L207.188,270.973ZM201.305,270.824L201.324,270.824L201.305,270.824Z" style="fill:rgb(35,31,32);fill-rule:nonzero;"/>
        </g>
    </g>
</svg>
