<svg
        id="root"
        version="1.1"
        viewBox="0 0 64 64"
        fill="currentColor"
        xmlns="http://www.w3.org/2000/svg"
>
    <path d="M15.4 38c-.4 0-.8-.2-1.1-.5l-5.4-5.8c-.6-.6-.5-1.6.1-2.1.6-.6 1.6-.5 2.1.1l4.3 4.6 9.1-10.5c.5-.6 1.5-.7 2.1-.2.6.5.7 1.5.2 2.1L16.5 37.5c-.3.3-.7.5-1.1.5zm9.6-1.1V32h-2v4.9c0 1.7-1.4 3.1-3.1 3.1h-9.7C8.4 40 7 38.6 7 36.9v-9.7c0-1.7 1.4-3.1 3.1-3.1h9.7c.4 0 .7.1 1 .2l.7-1.9c-.5-.3-1.1-.4-1.6-.4h-9.7C7.3 22 5 24.3 5 27.1v9.7c0 2.8 2.3 5.1 5.1 5.1h9.7c2.9.1 5.2-2.2 5.2-5zm9.5-1.9c-.2.1-.5.2-.9.2s-.7-.1-1-.3c-.2-.2-.4-.5-.4-.8h-1.9c0 .4.1.9.4 1.2.3.4.7.7 1.1.9.5.2 1 .3 1.7.3.9 0 1.7-.2 2.2-.6s.9-1 .9-1.6c0-.9-.5-1.6-1.6-2-.3-.1-.8-.2-1.2-.3-.5-.1-.8-.2-1-.3s-.3-.3-.3-.5.1-.4.3-.6.4-.2.8-.2.7.1.9.3.3.4.3.7h2c0-.7-.3-1.3-.8-1.7-.6-.4-1.3-.7-2.3-.7-.9 0-1.6.2-2.1.7s-.8 1-.8 1.6c0 1.1.9 1.9 2.6 2.2.5.1.9.2 1.2.4.2.1.4.3.4.6-.2.2-.3.4-.5.5zm8.5-5.9h-1.4l-1.4 4.7-1-4.7h-1.9l1.9 7.4h1.6l1.4-4.7 1.4 4.7h1.7l1.9-7.4h-1.9l-1 4.7-1.3-4.7zm5.2 0v7.4h2v-5.2c.3-.5.7-.7 1.2-.7.4 0 .7.1.9.3s.3.5.3.9v4.7h2v-5.1c.2-.6.6-.8 1.2-.8.4 0 .7.1.9.3s.2.5.2.9v4.7h2v-4.7c0-.9-.2-1.6-.6-2.1s-1-.7-1.8-.7c-1 0-1.7.4-2.2 1.1-.4-.8-1-1.1-2-1.1-.9 0-1.6.3-2.1 1l-.1-.8h-1.9z"/>
</svg>