<svg
        id="root"
        version="1.1"
        viewBox="0 0 64 64"
        fill="currentColor"
        xmlns="http://www.w3.org/2000/svg"
>
    <path d="M14.1 23.1c0-.3-.1-.5-.4-.6s-.7-.3-1.2-.4c-1.9-.4-2.8-1.2-2.8-2.4 0-.7.3-1.3.9-1.7.6-.5 1.3-.7 2.3-.7 1 0 1.8.2 2.4.7.6.5.9 1.1.9 1.8H14c0-.3-.1-.5-.3-.7s-.5-.3-.9-.3-.6.1-.8.2c-.2.2-.3.4-.3.6 0 .2.1.4.3.6.2.1.6.3 1.1.4.5.1 1 .2 1.3.4 1.1.4 1.7 1.1 1.7 2.1 0 .7-.3 1.3-.9 1.7s-1.4.7-2.4.7c-.7 0-1.2-.1-1.8-.4s-.9-.6-1.2-1c-.3-.4-.4-.9-.4-1.3h2c0 .4.2.7.4.9s.6.3 1 .3.7-.1.9-.2c.3-.3.4-.5.4-.7zm10.2-.7l1-5h2l-2 7.9h-1.8L22 20.4l-1.5 4.9h-1.8l-2-7.9h2l1 5 1.4-5h1.5l1.7 5zm6.1-5l.1.9c.6-.7 1.3-1 2.3-1 1 0 1.7.4 2.1 1.2.6-.8 1.3-1.2 2.4-1.2.9 0 1.5.2 1.9.7s.6 1.2.6 2.2v5h-2.1v-5c0-.4-.1-.8-.3-1-.2-.2-.5-.3-.9-.3-.6 0-1.1.3-1.3.9v5.4H33v-5c0-.5-.1-.8-.3-1s-.5-.3-.9-.3c-.6 0-1 .2-1.3.7v5.6h-2.1v-7.9h2zM56 26.6H8.1c-.8 0-1.5.7-1.5 1.5s.6 1.4 1.4 1.5v22c0 .2.2.4.5.4h42.1c.3 0 .5-.2.5-.5V29.6H56c.8 0 1.5-.7 1.5-1.5s-.7-1.5-1.5-1.5zM50.1 51H9V29.6h41.1V51zm.8-26.2c.2.2.5.3.7.3s.5-.1.7-.3l3.9-3.9c.4-.4.4-1 0-1.4s-1-.4-1.4 0l-3.2 3.2-3.2-3.2c-.4-.4-1-.4-1.4 0s-.4 1 0 1.4l3.9 3.9zm-39 9.6h3c.6 0 1-.4 1-1s-.4-1-1-1h-3c-.6 0-1 .4-1 1s.5 1 1 1zm26.1 0c.5 0 1-.5 1-1s-.5-1-1-1-1 .5-1 1 .5 1 1 1zm-17.1 0h12.7c.5 0 1-.5 1-1s-.5-1-1-1H20.9c-.5 0-1 .5-1 1s.4 1 1 1zm22.3 0h3c.6 0 1-.4 1-1s-.4-1-1-1h-3c-.6 0-1 .4-1 1s.5 1 1 1zm-31.3 7.8h3c.6 0 1-.4 1-1s-.4-1-1-1h-3c-.6 0-1 .4-1 1s.5 1 1 1zm9 0h12.6c.5 0 1-.5 1-1s-.5-1-1-1H20.9c-.6 0-1 .5-1 1s.4 1 1 1zm17.1 0c.5 0 1-.5 1-1s-.5-1-1-1-1 .5-1 1 .5 1 1 1zm5.2 0h3c.6 0 1-.4 1-1s-.4-1-1-1h-3c-.6 0-1 .4-1 1s.5 1 1 1zm-28.3 4.9h-3c-.6 0-1 .4-1 1s.4 1 1 1h3c.6 0 1-.4 1-1s-.4-1-1-1zm6 2h12.7c.5 0 1-.5 1-1 0-.6-.5-1-1-1H20.9c-.5 0-1 .4-1 1 0 .5.4 1 1 1zm17.1 0c.5 0 1-.5 1-1 0-.6-.5-1-1-1s-1 .4-1 1c0 .5.5 1 1 1zm5.2 0h3c.6 0 1-.4 1-1s-.4-1-1-1h-3c-.6 0-1 .4-1 1s.5 1 1 1z"/>
</svg>