<svg
        id="root"
        version="1.1"
        viewBox="0 0 64 64"
        fill="currentColor"
        xmlns="http://www.w3.org/2000/svg"
>
    <path d="M40.8 31.7H29.7c-.6 0-1-.4-1-1s.4-1 1-1h11.2c.6 0 1 .4 1 1s-.5 1-1.1 1zm1 4.1c0-.6-.4-1-1-1H23.7c-.6 0-1 .4-1 1s.4 1 1 1h17.2c.5 0 .9-.4.9-1zM38.5 6.9v1.9c0 .6-.4 1-1 1s-1-.4-1-1v-.9H22.2V18c0 .6-.4 1-1 1H11v28.9h3.5c.6 0 1 .4 1 1s-.4 1-1 1H10c-.6 0-1-.4-1-1v-31c0-.1 0-.2.1-.3v-.1c0-.1.1-.2.2-.3L20.5 6.1s.1-.1.2-.1h.1c.1 0 .2 0 .3-.1h16.4c.5 0 1 .4 1 1zM20.2 9.3L12.4 17h7.7V9.3zm-3.9 19.9c0-.6-.4-1-1-1h-.1c-.6 0-1 .4-1 1s.4 1 1 1h.1c.5 0 1-.5 1-1zm0 5.1c0-.6-.4-1-1-1h-.1c-.6 0-1 .4-1 1s.4 1 1 1h.1c.5 0 1-.4 1-1zm0 5.2c0-.6-.4-1-1-1h-.1c-.6 0-1 .4-1 1s.4 1 1 1h.1c.5 0 1-.5 1-1zM34 56.6H18.5c-.6 0-1-.4-1-1V24.5c0-.1 0-.2.1-.3v-.1c0-.1.1-.2.2-.3l11.2-11c.1-.1.2-.1.3-.2h.1c.1 0 .2 0 .3-.1H46c.6 0 1 .4 1 1v25.7h-2V14.5H30.7v10.2c0 .6-.4 1-1 1H19.5v28.9H34v2zm-13.1-33h7.7v-7.7l-7.7 7.7zM34 45.1H23.7c-.6 0-1 .4-1 1s.4 1 1 1H34v-2zm0-5.1H23.7c-.6 0-1 .4-1 1s.4 1 1 1H34v-2zm5.5 8.1h-2.1l2.1 3.6-2.2 3.8h2.1l1.3-2.3 1.3 2.3h2.1L42 51.7l2.1-3.6H42l-1.2 2.2-1.3-2.2zm6.2-3.7v11.1h1.9v-7.9c.3-.5.6-1 1.1-1.3.5-.3 1-.5 1.6-.5.8 0 1.3.2 1.7.6.4.4.5 1 .5 1.8v7.3h1.9v-7.3c0-2.6-1.2-4-3.5-4-1.4 0-2.5.5-3.3 1.6l-.1-1.4h-1.8z"/>
</svg>