<svg
        id="root"
        version="1.1"
        viewBox="0 0 64 64"
        fill="currentColor"
        xmlns="http://www.w3.org/2000/svg"
>
    <path d="M55.5 46.1h-48c-.8 0-1.5-.7-1.5-1.5s.7-1.5 1.5-1.5h48c.8 0 1.5.7 1.5 1.5s-.7 1.5-1.5 1.5zM12 39.6v-17c0-.3-.2-.5-.5-.5s-.5.2-.5.5v17c0 .3.2.5.5.5s.5-.3.5-.5zm46.5-10.1c0-6.6-5.3-11.9-11.9-11.9-6.6 0-11.9 5.3-11.9 11.9 0 6.6 5.3 11.9 11.9 11.9 6.6 0 11.9-5.3 11.9-11.9zm-2 0c0 5.5-4.4 9.9-9.9 9.9s-9.9-4.4-9.9-9.9 4.4-9.9 9.9-9.9 9.9 4.5 9.9 9.9zM45.8 22c0 .5.4.8.8.8s.8-.4.8-.8c0-.5-.4-.8-.8-.8s-.8.3-.8.8zm0 15.1c0 .5.4.8.8.8s.8-.4.8-.8c0-.5-.4-.8-.8-.8s-.8.3-.8.8zm7.5-7.6c0 .5.4.8.8.8.5 0 .8-.4.8-.8 0-.5-.4-.8-.8-.8s-.8.4-.8.8zm-15 0c0 .5.4.8.8.8s.8-.4.8-.8c0-.5-.4-.8-.8-.8s-.8.3-.8.8zm12.1 3.1l-2.8-2.8c0-.1.1-.2.1-.3v-4.1c0-.6-.4-1-1-1s-1 .4-1 1v3.1h-4c-.6 0-1 .4-1 1s.4 1 1 1h5.2l2.9 2.9c.1.1.2.1.4.1s.3 0 .4-.1c-.1-.2-.1-.6-.2-.8z"/>
</svg>