<svg
        id="root"
        version="1.1"
        viewBox="0 0 64 64"
        fill="currentColor"
        xmlns="http://www.w3.org/2000/svg"
>
    <path d="M56 44.1H8c-.8 0-1.5-.7-1.5-1.5s.7-1.5 1.5-1.5h48c.8 0 1.5.7 1.5 1.5s-.7 1.5-1.5 1.5zm-43.5-6.5v-17c0-.3-.2-.5-.5-.5s-.5.2-.5.5v17c0 .3.2.5.5.5s.5-.3.5-.5zm16-15.7H17v2.6h8.1l-6.3 13.7h3.4l6.3-14.5v-1.8zm2.1 3.9c0 1 .3 1.9 1 2.5.7.6 1.5.9 2.6.9s1.9-.3 2.6-.9 1-1.4 1-2.4v-.8c0-1.1-.3-1.9-1-2.5-.7-.6-1.5-.9-2.6-.9s-1.9.3-2.6.9c-.7.6-1 1.4-1 2.4v.8zm2.1-.7c0-.5.1-.9.4-1.1.3-.3.6-.4 1-.4s.8.1 1 .4c.2.3.4.6.4 1.1v.8c0 .5-.1.8-.4 1.1-.2.3-.6.4-1 .4s-.8-.1-1-.4c-.3-.3-.4-.6-.4-1.1v-.8zm10-.9l-1.6-.9-8 12.8 1.6.9 8-12.8zM38.4 35c0 1 .3 1.8 1 2.5.7.6 1.5.9 2.6.9s1.9-.3 2.6-.9c.6-.6 1-1.4 1-2.4v-.8c0-1.1-.3-1.9-1-2.5-.7-.6-1.5-.9-2.6-.9-1 0-1.9.3-2.6.9-.7.6-1 1.4-1 2.4v.8zm2.1-.8c0-.5.1-.8.4-1.1.3-.3.6-.4 1-.4s.8.1 1 .4c.3.3.4.6.4 1.1v.9c0 1-.5 1.5-1.4 1.5-.4 0-.7-.1-1-.4s-.4-.6-.4-1.1v-.9z"/>
</svg>