<svg
        id="root"
        version="1.1"
        viewBox="0 0 640 640"
        fill="currentColor"
        xmlns="http://www.w3.org/2000/svg"
>
<path d="M155,290H75c-3,0-5,2-5,5s2,5,5,5h80c3,0,5-2,5-5S158,290,155,290z M345,290H205c-3,0-5,2-5,5s2,5,5,5h140
	c3,0,5-2,5-5S348,290,345,290z M455,290h-60c-3,0-5,2-5,5s2,5,5,5h60c3,0,5-2,5-5S458,290,455,290z M565,290h-50c-3,0-5,2-5,5
	s2,5,5,5h50c3,0,5-2,5-5S568,290,565,290z M73,177c-3,0-5,2-5,5s2,5,5,5h80c3,0,5-2,5-5s-2-5-5-5H73z M203,177c-3,0-5,2-5,5s2,5,5,5
	h140c3,0,5-2,5-5s-2-5-5-5H203z M393,177c-3,0-5,2-5,5s2,5,5,5h60c3,0,5-2,5-5s-2-5-5-5H393z M513,177c-3,0-5,2-5,5s2,5,5,5h50
	c3,0,5-2,5-5s-2-5-5-5H513z M155,350H75c-3,0-5,2-5,5s2,5,5,5h80c3,0,5-2,5-5S158,350,155,350z M345,350H205c-3,0-5,2-5,5s2,5,5,5
	h140c3,0,5-2,5-5S348,350,345,350z M455,350h-60c-3,0-5,2-5,5s2,5,5,5h60c3,0,5-2,5-5S458,350,455,350z M565,350h-50c-3,0-5,2-5,5
	s2,5,5,5h50c3,0,5-2,5-5S568,350,565,350z M155,410H75c-3,0-5,2-5,5s2,5,5,5h80c3,0,5-2,5-5S158,410,155,410z M345,410H205
	c-3,0-5,2-5,5s2,5,5,5h140c3,0,5-2,5-5S348,410,345,410z M455,410h-60c-3,0-5,2-5,5s2,5,5,5h60c3,0,5-2,5-5S458,410,455,410z
	 M565,410h-50c-3,0-5,2-5,5s2,5,5,5h50c3,0,5-2,5-5S568,410,565,410z M155,470H75c-3,0-5,2-5,5s2,5,5,5h80c3,0,5-2,5-5
	S158,470,155,470z M345,470H205c-3,0-5,2-5,5s2,5,5,5h140c3,0,5-2,5-5S348,470,345,470z M455,470h-60c-3,0-5,2-5,5s2,5,5,5h60
	c3,0,5-2,5-5S458,470,455,470z M565,470h-50c-3,0-5,2-5,5s2,5,5,5h50c3,0,5-2,5-5S568,470,565,470z M154,233H74c-3,0-5,2-5,5
	s2,5,5,5h80c3,0,5-2,5-5S157,233,154,233z M344,233H204c-3,0-5,2-5,5s2,5,5,5h140c3,0,5-2,5-5S347,233,344,233z M454,233h-60
	c-3,0-5,2-5,5s2,5,5,5h60c3,0,5-2,5-5S457,233,454,233z M564,233h-50c-3,0-5,2-5,5s2,5,5,5h50c3,0,5-2,5-5S567,233,564,233z"/>
</svg>
