<svg
        id="root"
        version="1.1"
        viewBox="0 0 64 64"
        fill="currentColor"
        xmlns="http://www.w3.org/2000/svg"
>
    <path d="M56 44.4H8c-.8 0-1.5-.7-1.5-1.5s.7-1.5 1.5-1.5h48c.8 0 1.5.7 1.5 1.5s-.7 1.5-1.5 1.5zm-43.2-6.1V21c0-.3-.2-.5-.5-.5s-.5.2-.5.5v17.3c0 .3.2.5.5.5s.5-.2.5-.5zm11-2c-.3.2-.8.4-1.4.4-.7 0-1.2-.2-1.6-.5-.4-.3-.6-.7-.6-1.3h-3.1c0 .7.2 1.4.7 2 .4.6 1.1 1.1 1.8 1.5s1.7.5 2.7.5c1.5 0 2.7-.3 3.7-1 .9-.7 1.4-1.6 1.4-2.7 0-1.5-.9-2.6-2.6-3.2-.5-.2-1.2-.4-2-.5s-1.4-.3-1.7-.6-.5-.5-.5-.9.1-.7.4-.9c.3-.2.7-.4 1.3-.4.6 0 1.1.2 1.4.5.3.3.4.7.4 1.1h3.2c0-1.2-.5-2.1-1.4-2.8-.9-.7-2.1-1.1-3.7-1.1-1.4 0-2.6.4-3.5 1.1-.9.7-1.3 1.6-1.3 2.7 0 1.8 1.4 3.1 4.3 3.7.9.2 1.5.4 1.9.6.4.2.6.5.6.9.1.3-.1.6-.4.9zm14-9.7h-2.3l-2.2 7.7-1.6-7.7h-3.1l3.1 12.1h2.7l2.3-7.6 2.3 7.6h2.7l3.1-12.1h-3.1L40 34.3l-2.2-7.7z"/>
</svg>