<svg
        id="root"
        version="1.1"
        viewBox="0 0 64 64"
        fill="currentColor"
        xmlns="http://www.w3.org/2000/svg"
>
    <path d="M56 50.5H8c-.6 0-1-.4-1-1v-35c0-.6.4-1 1-1h48c.6 0 1 .4 1 1v35c0 .6-.4 1-1 1zm-47-2h46v-33H9v33zm4-31.1v1.4h1V20h-1v2.9c0 .2 0 .4.1.5s.2.1.5.1h.5v1.2c-.3.1-.6.1-.9.1-1.1 0-1.6-.5-1.7-1.6V20h-.8v-1.1h.8v-1.4H13zm4.5 7.4c-.9 0-1.5-.3-2.1-.8-.5-.5-.8-1.2-.8-2.1v-.2c0-.6.1-1.1.3-1.6.2-.5.5-.8 1-1.1.4-.2.9-.4 1.4-.4.8 0 1.4.3 1.9.8s.7 1.2.7 2.1v.6h-3.7c.1.4.2.7.5.9.3.2.6.3 1 .3.6 0 1.1-.2 1.4-.6l.8.9c-.2.3-.5.6-.9.8-.6.3-1 .4-1.5.4zm-.2-4.8c-.3 0-.6.1-.7.3-.2.2-.3.5-.4.9h2.2v-.1c0-.3-.1-.6-.3-.8s-.4-.3-.8-.3zm5.7.6l1-1.7h1.7L24 21.7l1.7 3H24l-1-1.8-1 1.8h-1.7l1.7-3-1.6-2.8H22l1 1.7zm5.2-3.2v1.4h1V20h-1v2.9c0 .2 0 .4.1.5s.2.1.5.1h.5v1.2c-.3.1-.6.1-.9.1-1.1 0-1.6-.5-1.7-1.6V20h-.8v-1.1h.8v-1.4h1.5zm25.1 21.9l-.7-.7-7.1 7.1.7.7 7.1-7.1zm.7 3.5l-.7-.7-4.2 4.2.7.7 4.2-4.2z"/>
</svg>