<svg
        id="root"
        version="1.1"
        viewBox="0 0 64 64"
        fill="currentColor"
        xmlns="http://www.w3.org/2000/svg"
>

    <g>
        <g transform="matrix(1,0,0,1,0.0347576,-2.72881)">
            <g transform="matrix(0.878829,0,0,0.878829,-1.00907,1.07407)">
                <rect x="4.464" y="4.84" width="31.458" height="17.69" style="fill:white;stroke:black;stroke-width:1.14px;"/>
            </g>
            <g transform="matrix(1.17323,0,0,1.17323,-1.04795,-7.56792)">
                <rect x="6.05" y="13.1" width="5.299" height="5.299" style="fill:rgb(211,211,211);"/>
            </g>
            <g transform="matrix(2.49606,0,0,0.307087,-1.95793,4.61459)">
                <rect x="6.05" y="13.1" width="5.299" height="5.299" style="fill:rgb(211,211,211);"/>
            </g>
            <g transform="matrix(2.49606,0,0,0.307087,-1.95793,7.45032)">
                <rect x="6.05" y="13.1" width="5.299" height="5.299" style="fill:rgb(211,211,211);"/>
            </g>
            <g transform="matrix(3.83465,0,0,0.307087,-17.1483,12.0383)">
                <rect x="6.05" y="13.1" width="5.299" height="5.299" style="fill:rgb(211,211,211);"/>
            </g>
        </g>
        <g transform="matrix(1,0,0,1,30.4911,-2.72881)">
            <g transform="matrix(0.878829,0,0,0.878829,-1.00907,1.07407)">
                <rect x="4.464" y="4.84" width="31.458" height="17.69" style="fill:white;stroke:black;stroke-width:1.14px;"/>
            </g>
            <g transform="matrix(1.17323,0,0,1.17323,-1.04795,-7.56792)">
                <rect x="6.05" y="13.1" width="5.299" height="5.299" style="fill:rgb(211,211,211);"/>
            </g>
            <g transform="matrix(2.49606,0,0,0.307087,-1.95793,4.61459)">
                <rect x="6.05" y="13.1" width="5.299" height="5.299" style="fill:rgb(211,211,211);"/>
            </g>
            <g transform="matrix(2.49606,0,0,0.307087,-1.95793,7.45032)">
                <rect x="6.05" y="13.1" width="5.299" height="5.299" style="fill:rgb(211,211,211);"/>
            </g>
            <g transform="matrix(3.83465,0,0,0.307087,-17.1483,12.0383)">
                <rect x="6.05" y="13.1" width="5.299" height="5.299" style="fill:rgb(211,211,211);"/>
            </g>
        </g>
        <g transform="matrix(1,0,0,1,0.0347576,18.837)">
            <g transform="matrix(0.878829,0,0,0.878829,-1.00907,1.07407)">
                <rect x="4.464" y="4.84" width="31.458" height="17.69" style="fill:white;stroke:black;stroke-width:1.14px;"/>
            </g>
            <g transform="matrix(1.17323,0,0,1.17323,-1.04795,-7.56792)">
                <rect x="6.05" y="13.1" width="5.299" height="5.299" style="fill:rgb(211,211,211);"/>
            </g>
            <g transform="matrix(2.49606,0,0,0.307087,-1.95793,4.61459)">
                <rect x="6.05" y="13.1" width="5.299" height="5.299" style="fill:rgb(211,211,211);"/>
            </g>
            <g transform="matrix(2.49606,0,0,0.307087,-1.95793,7.45032)">
                <rect x="6.05" y="13.1" width="5.299" height="5.299" style="fill:rgb(211,211,211);"/>
            </g>
            <g transform="matrix(3.83465,0,0,0.307087,-17.1483,12.0383)">
                <rect x="6.05" y="13.1" width="5.299" height="5.299" style="fill:rgb(211,211,211);"/>
            </g>
        </g>
        <g transform="matrix(1,0,0,1,30.4911,18.837)">
            <g transform="matrix(0.878829,0,0,0.878829,-1.00907,1.07407)">
                <rect x="4.464" y="4.84" width="31.458" height="17.69" style="fill:white;stroke:black;stroke-width:1.14px;"/>
            </g>
            <g transform="matrix(1.17323,0,0,1.17323,-1.04795,-7.56792)">
                <rect x="6.05" y="13.1" width="5.299" height="5.299" style="fill:rgb(211,211,211);"/>
            </g>
            <g transform="matrix(2.49606,0,0,0.307087,-1.95793,4.61459)">
                <rect x="6.05" y="13.1" width="5.299" height="5.299" style="fill:rgb(211,211,211);"/>
            </g>
            <g transform="matrix(2.49606,0,0,0.307087,-1.95793,7.45032)">
                <rect x="6.05" y="13.1" width="5.299" height="5.299" style="fill:rgb(211,211,211);"/>
            </g>
            <g transform="matrix(3.83465,0,0,0.307087,-17.1483,12.0383)">
                <rect x="6.05" y="13.1" width="5.299" height="5.299" style="fill:rgb(211,211,211);"/>
            </g>
        </g>
        <g transform="matrix(1,0,0,1,0.0347576,40.528)">
            <g transform="matrix(0.878829,0,0,0.878829,-1.00907,1.07407)">
                <rect x="4.464" y="4.84" width="31.458" height="17.69" style="fill:white;stroke:black;stroke-width:1.14px;"/>
            </g>
            <g transform="matrix(1.17323,0,0,1.17323,-1.04795,-7.56792)">
                <rect x="6.05" y="13.1" width="5.299" height="5.299" style="fill:rgb(211,211,211);"/>
            </g>
            <g transform="matrix(2.49606,0,0,0.307087,-1.95793,4.61459)">
                <rect x="6.05" y="13.1" width="5.299" height="5.299" style="fill:rgb(211,211,211);"/>
            </g>
            <g transform="matrix(2.49606,0,0,0.307087,-1.95793,7.45032)">
                <rect x="6.05" y="13.1" width="5.299" height="5.299" style="fill:rgb(211,211,211);"/>
            </g>
            <g transform="matrix(3.83465,0,0,0.307087,-17.1483,12.0383)">
                <rect x="6.05" y="13.1" width="5.299" height="5.299" style="fill:rgb(211,211,211);"/>
            </g>
        </g>
        <g transform="matrix(1,0,0,1,30.4911,40.528)">
            <g transform="matrix(0.878829,0,0,0.878829,-1.00907,1.07407)">
                <rect x="4.464" y="4.84" width="31.458" height="17.69" style="fill:white;stroke:black;stroke-width:1.14px;"/>
            </g>
            <g transform="matrix(1.17323,0,0,1.17323,-1.04795,-7.56792)">
                <rect x="6.05" y="13.1" width="5.299" height="5.299" style="fill:rgb(211,211,211);"/>
            </g>
            <g transform="matrix(2.49606,0,0,0.307087,-1.95793,4.61459)">
                <rect x="6.05" y="13.1" width="5.299" height="5.299" style="fill:rgb(211,211,211);"/>
            </g>
            <g transform="matrix(2.49606,0,0,0.307087,-1.95793,7.45032)">
                <rect x="6.05" y="13.1" width="5.299" height="5.299" style="fill:rgb(211,211,211);"/>
            </g>
            <g transform="matrix(3.83465,0,0,0.307087,-17.1483,12.0383)">
                <rect x="6.05" y="13.1" width="5.299" height="5.299" style="fill:rgb(211,211,211);"/>
            </g>
        </g>
    </g>
</svg>