<svg
        id="root"
        version="1.1"
        viewBox="0 0 64 64"
        fill="currentColor"
        xmlns="http://www.w3.org/2000/svg"
>
    <path d="M53.9 22.5c1.2 0 2.1 1 2.1 2.1v14.7c0 1.2-1 2.1-2.1 2.1H10.1c-1.2 0-2.1-1-2.1-2.1V24.6c0-1.2 1-2.1 2.1-2.1h43.8m0-2H10.1c-2.3 0-4.1 1.9-4.1 4.1v14.7c0 2.3 1.9 4.1 4.1 4.1h43.7c2.3 0 4.1-1.9 4.1-4.1V24.6c.1-2.2-1.8-4.1-4-4.1zM19.1 33.3c0 1.2-.3 2.1-.8 2.8s-1.2 1-2.1 1c-.8 0-1.4-.3-1.9-.9l-.1.8h-1.8V26.5h2v3.8c.5-.5 1.1-.8 1.8-.8.9 0 1.6.3 2.1 1s.8 1.6.8 2.8zm-2-.1c0-.7-.1-1.3-.4-1.6-.2-.3-.6-.5-1.1-.5-.6 0-1.1.3-1.3.8v2.9c.2.5.7.8 1.3.8.6 0 1.1-.3 1.3-.9.1-.4.2-.9.2-1.5zm7.6 3c-.5.6-1.2.9-2 .9s-1.4-.2-1.8-.7c-.4-.5-.6-1.1-.6-2v-4.8h2v4.8c0 .8.4 1.2 1.1 1.2.7 0 1.1-.2 1.4-.7v-5.2h2V37h-1.9l-.2-.8zm5.8-8.4v1.8h1.3V31h-1.3v3.7c0 .3.1.5.2.6.1.1.3.2.6.2h.6V37c-.4.1-.8.2-1.2.2-1.4 0-2.1-.7-2.1-2.1v-4h-1.1v-1.4h1.1v-1.8h1.9zm4.7 0v1.8h1.3V31h-1.3v3.7c0 .3.1.5.2.6.1.1.3.2.6.2h.6V37c-.4.1-.8.2-1.2.2-1.4 0-2.1-.7-2.1-2.1v-4h-1.1v-1.4h1.1v-1.8h1.9zm1.9 5.4c0-.7.1-1.4.4-2s.7-1 1.2-1.3c.5-.3 1.1-.5 1.8-.5 1 0 1.8.3 2.4.9.6.6 1 1.4 1.1 2.5v.5c0 1.1-.3 2-1 2.7-.6.7-1.5 1-2.5 1s-1.9-.3-2.6-1c-.5-.6-.8-1.5-.8-2.8zm1.9.2c0 .7.1 1.2.4 1.6s.6.6 1.1.6c.5 0 .9-.2 1.1-.6s.4-1 .4-1.8c0-.7-.1-1.2-.4-1.6s-.6-.6-1-.6c-.5 0-.9.2-1.1.6-.3.4-.5 1-.5 1.8zm8.1-3.8l.1.9c.5-.7 1.2-1 2.1-1 .8 0 1.4.2 1.8.7s.6 1.1.6 2.1V37h-2v-4.7c0-.4-.1-.7-.3-.9s-.5-.4-.9-.4c-.6 0-1 .2-1.3.7V37h-2v-7.4h1.9z"/>
</svg>