<svg
        id="root"
        version="1.1"
        viewBox="0 0 180 180"
        fill="currentColor"
        xmlns="http://www.w3.org/2000/svg"
>
<g id="root_1_">
	<path d="M158.906,69.469H22.5c-2.25,0-4.219,1.969-4.219,4.219c0,1.969,1.125,3.375,2.813,3.938v63.281
		c0,0.844,0.563,1.406,1.406,1.406h120.938c0.844,0,1.406-0.563,1.406-1.406v-63h14.063c2.25,0,4.219-1.969,4.219-4.219
		S161.156,69.469,158.906,69.469z M142.031,139.5H23.906V77.906h118.125V139.5z M32.906,62.156c-0.844,0-1.688-0.281-2.25-0.844
		s-0.844-1.125-0.844-2.25h-4.219c0,1.125,0.281,2.25,1.125,3.375c0.563,0.844,1.688,1.688,2.813,2.25s2.25,0.844,3.656,0.844
		S36,65.25,37.125,64.688s1.969-1.406,2.531-2.531s0.844-2.531,0.844-3.938c0-2.25-0.563-4.219-1.688-5.344S36,50.906,33.75,50.906
		c-1.125,0-2.25,0.281-3.375,0.844l0.563-4.781h8.719v-3.656H27.281l-1.406,11.25l3.375,0.844l0.563-0.281
		c0.563-0.563,1.406-0.844,2.531-0.844s1.969,0.281,2.531,1.125s0.844,1.688,0.844,2.813c0,1.406-0.281,2.25-0.844,3.094
		C34.875,61.875,34.031,62.156,32.906,62.156z M52.875,43.594h-3.094L41.625,67.5h3.094L52.875,43.594z M55.688,56.25
		c-0.563,0.844-0.844,1.969-0.844,3.094c0,1.969,0.563,3.375,1.969,4.5s3.094,1.688,5.344,1.688s4.219-0.563,5.344-1.688
		c1.406-1.125,1.969-2.813,1.969-4.5c0-1.125-0.281-2.25-0.844-3.094s-1.406-1.688-2.531-2.25c0.844-0.563,1.688-1.125,2.25-1.969
		s0.844-1.688,0.844-2.813c0-1.969-0.563-3.375-1.969-4.5c-1.125-1.125-2.813-1.688-5.063-1.688s-3.938,0.563-5.063,1.688
		s-1.969,2.531-1.969,4.5c0,1.125,0.281,1.969,0.844,2.813s1.125,1.406,2.25,1.969C57.094,54.563,56.25,55.406,55.688,56.25z
		 M60.188,47.531c0.563-0.563,1.125-0.844,1.969-0.844s1.406,0.281,1.969,0.844s0.563,1.125,0.563,1.969s-0.281,1.688-0.563,2.25
		c-0.563,0.563-1.125,0.844-1.969,0.844s-1.406-0.281-1.969-0.844s-0.563-1.125-0.563-2.25
		C59.625,48.656,59.906,48.094,60.188,47.531z M59.906,56.813c0.563-0.563,1.406-0.844,2.25-0.844s1.688,0.281,2.25,0.844
		s0.844,1.406,0.844,2.25s-0.281,1.688-0.844,2.25s-1.406,0.844-2.25,0.844s-1.688-0.281-2.25-0.844s-0.844-1.125-0.844-2.25
		C59.063,58.219,59.344,57.375,59.906,56.813z M82.125,43.594h-3.094L70.875,67.5h3.094L82.125,43.594z M90.281,65.531h4.5V43.594
		h-0.563l-9,3.094v3.656l5.063-1.688V65.531z M102.656,56.25c-0.563,0.844-0.844,1.969-0.844,3.094c0,1.969,0.563,3.375,1.969,4.5
		s3.094,1.688,5.344,1.688s4.219-0.563,5.344-1.688c1.406-1.125,1.969-2.813,1.969-4.5c0-1.125-0.281-2.25-0.844-3.094
		s-1.406-1.688-2.531-2.25c0.844-0.563,1.688-1.125,2.25-1.969s0.844-1.688,0.844-2.813c0-1.969-0.563-3.375-1.969-4.5
		c-1.125-1.125-2.813-1.688-5.063-1.688s-3.938,0.563-5.063,1.688s-1.969,2.531-1.969,4.5c0,1.125,0.281,1.969,0.844,2.813
		s1.125,1.406,2.25,1.969C104.063,54.563,103.219,55.406,102.656,56.25z M107.438,47.531c0.563-0.563,1.125-0.844,1.969-0.844
		s1.406,0.281,1.969,0.844s0.563,1.125,0.563,1.969s-0.281,1.688-0.563,2.25s-1.125,0.844-1.969,0.844s-1.406-0.281-1.969-0.844
		s-0.563-1.125-0.563-2.25C106.594,48.656,106.875,48.094,107.438,47.531z M106.875,56.813c0.563-0.563,1.406-0.844,2.25-0.844
		s1.688,0.281,2.25,0.844s0.844,1.406,0.844,2.25s-0.281,1.688-0.844,2.25s-1.406,0.844-2.25,0.844s-1.688-0.281-2.25-0.844
		s-0.844-1.406-0.844-2.25S106.313,57.375,106.875,56.813z M144.281,64.125c0.563,0.563,1.406,0.844,1.969,0.844
		s1.406-0.281,1.969-0.844l11.25-11.25c1.125-1.125,1.125-2.813,0-3.938s-2.813-1.125-3.938,0l-9.281,9.281l-9.281-9.281
		c-1.125-1.125-2.813-1.125-3.938,0s-1.125,2.813,0,3.938L144.281,64.125z"/>
	<path d="M82.13,106.078l0.009-4.781l4.781,0.01l-0.009,4.781L82.13,106.078z"/>
	<path d="M90.499,106.063l0.01-4.781l4.781,0.01l-0.01,4.781L90.499,106.063z"/>
	<path d="M98.895,106.062l0.01-4.781l4.781,0.01l-0.01,4.781L98.895,106.062z"/>
	<path d="M65.256,113.73l0.009-4.781l4.781,0.01l-0.009,4.781L65.256,113.73z"/>
	<path d="M73.65,113.713l0.01-4.781l4.781,0.01l-0.01,4.781L73.65,113.713z"/>
	<path d="M82.045,113.707l0.01-4.781l4.781,0.009l-0.01,4.781L82.045,113.707z"/>
	<path d="M90.47,113.658l0.01-4.781l4.782,0.01l-0.01,4.781L90.47,113.658z"/>
	<path d="M98.866,113.652l0.01-4.781l4.781,0.01l-0.01,4.781L98.866,113.652z"/>
	<path d="M90.394,121.328l0.009-4.781l4.781,0.01l-0.009,4.781L90.394,121.328z"/>
	<path d="M98.807,121.305l0.01-4.781l4.781,0.01l-0.01,4.781L98.807,121.305z"/>
	<path d="M65.178,121.377l0.01-4.781l4.781,0.01l-0.01,4.781L65.178,121.377z"/>
	<path d="M73.572,121.365l0.01-4.781l4.781,0.01l-0.01,4.781L73.572,121.365z"/>
	<path d="M81.98,121.354l0.009-4.781l4.781,0.009l-0.009,4.781L81.98,121.354z"/>
	<path d="M90.346,128.971l0.009-4.781l4.782,0.009l-0.01,4.781L90.346,128.971z"/>
	<path d="M98.759,128.945l0.01-4.781l4.781,0.01l-0.01,4.781L98.759,128.945z"/>
	<path d="M81.933,128.994l0.009-4.781l4.781,0.01l-0.009,4.781L81.933,128.994z"/>
	<path d="M65.132,129.005l0.01-4.781l4.781,0.01l-0.01,4.781L65.132,129.005z"/>
	<path d="M73.507,129.006l0.009-4.781l4.781,0.01l-0.009,4.781L73.507,129.006z"/>
	<path d="M56.25,95.344v34.594c0,3.094,2.531,5.344,5.344,5.344h45c3.094,0,5.344-2.531,5.344-5.344V90
		c0-3.094-2.531-5.344-5.344-5.344h-2.813v-2.531c0-1.688-1.125-2.813-2.813-2.813s-2.813,1.125-2.813,2.813v2.25H70.594v-2.25
		c0-1.688-1.125-2.813-2.813-2.813s-2.813,1.125-2.813,2.813v2.25h-3.094c-3.094,0-5.344,2.531-5.344,5.344L56.25,95.344z
		 M84.375,129.656h-3.938l-18.563,0.281v-28.969h45v10.406l0.281,18.281H84.375z M65.531,90v1.969c0,1.688,1.125,2.813,2.813,2.813
		s2.813-1.125,2.813-2.813V90h27.563v1.688c0,1.688,1.125,2.813,2.813,2.813s2.813-1.125,2.813-2.813V90h2.531v5.344h-45V90H65.531z
		"/>
</g>
</svg>
