<svg
        id="root"
        version="1.1"
        viewBox="0 0 64 64"
        fill="currentColor"
        xmlns="http://www.w3.org/2000/svg"
>
    <path d="M22.3 29.5h-7.6c-2.3 0-4.2-1.9-4.2-4.2v-7.6c0-2.3 1.9-4.2 4.2-4.2h7.6c.5 0 .9.1 1.4.2l-.7 1.9c-.2-.1-.5-.1-.7-.1h-7.6c-1.2 0-2.2 1-2.2 2.2v7.6c0 1.2 1 2.2 2.2 2.2h7.6c1.2 0 2.2-1 2.2-2.2v-3.8h2v3.8c0 2.3-1.9 4.2-4.2 4.2zm-3.5-3c.4 0 .8-.2 1.1-.5l7.9-9.2c.5-.6.5-1.6-.2-2.1-.6-.5-1.6-.5-2.1.2l-6.8 7.9-3.1-3.3c-.6-.6-1.5-.6-2.1-.1-.6.6-.6 1.5-.1 2.1l4.2 4.5c.4.4.8.5 1.2.5zm14.8-2.7c-.1.1-.3.2-.6.2s-.6-.1-.8-.2c-.2-.1-.3-.4-.3-.6h-1.5c0 .3.1.7.3 1 .2.3.5.5.9.7s.8.3 1.3.3c.7 0 1.3-.2 1.7-.5.4-.3.7-.7.7-1.3 0-.7-.4-1.2-1.2-1.5-.3-.1-.6-.2-1-.3-.4-.1-.7-.2-.8-.3-.2-.1-.2-.2-.2-.4s.1-.3.2-.4c.1-.1.3-.2.6-.2s.5.1.7.2c.1.1.2.3.2.5h1.5c0-.5-.2-1-.7-1.3s-1-.5-1.8-.5c-.7 0-1.2.2-1.7.5-.4.3-.6.8-.6 1.3 0 .9.7 1.5 2.1 1.7.4.1.7.2.9.3.2.1.3.3.3.4.1.2 0 .3-.2.4zm6.7-4.6h-1.1l-1.1 3.7-.7-3.7h-1.5l1.5 5.8h1.3l1.1-3.6 1.1 3.6h1.3l1.5-5.8h-1.5l-.8 3.7-1.1-3.7zm4.1 0V25h1.5v-4.1c.2-.4.5-.5.9-.5.3 0 .5.1.7.2s.2.4.2.7V25h1.5v-4c.2-.4.5-.7 1-.7.3 0 .5.1.7.2.1.2.2.4.2.7V25h1.5v-3.7c0-.7-.2-1.3-.5-1.6-.3-.4-.8-.5-1.4-.5-.7 0-1.3.3-1.7.9-.3-.6-.8-.9-1.5-.9s-1.2.3-1.7.8v-.6h-1.4zM26.5 46.3v-3.8h-2v3.8c0 1.2-1 2.2-2.2 2.2h-7.6c-1.2 0-2.2-1-2.2-2.2v-7.6c0-1.2 1-2.2 2.2-2.2h7.6c.3 0 .5 0 .7.1l.7-1.9c-.4-.2-.9-.2-1.4-.2h-7.6c-2.3 0-4.2 1.9-4.2 4.2v7.6c0 2.3 1.9 4.2 4.2 4.2h7.6c2.3 0 4.2-1.9 4.2-4.2zm-7.7 1.2c.4 0 .8-.2 1.1-.5l7.9-9.2c.5-.6.5-1.6-.2-2.1-.6-.5-1.6-.5-2.1.2l-6.8 7.9-3.1-3.3c-.6-.6-1.5-.6-2.1-.1-.6.6-.6 1.5-.1 2.1l4.2 4.5c.4.4.8.5 1.2.5zm14.8-2.7c-.1.1-.3.2-.6.2s-.6-.1-.8-.2c-.2-.1-.3-.4-.3-.6h-1.5c0 .3.1.7.3 1 .2.3.5.5.9.7s.8.3 1.3.3c.7 0 1.3-.2 1.7-.5.4-.3.7-.7.7-1.3 0-.7-.4-1.3-1.2-1.5-.3-.1-.6-.2-1-.3-.4-.1-.7-.2-.8-.3-.2-.1-.2-.2-.2-.4s.1-.3.2-.4c.1-.1.3-.2.6-.2s.5.1.7.2c.1.1.2.3.2.5h1.5c0-.5-.2-1-.7-1.3s-1-.5-1.8-.5c-.7 0-1.2.2-1.7.5-.4.3-.6.8-.6 1.3 0 .9.7 1.5 2.1 1.7.4.1.7.2.9.3.2.1.3.3.3.4.1.2 0 .3-.2.4zm6.7-4.6h-1.1l-1.1 3.7-.7-3.7h-1.5l1.5 5.8h1.3l1.1-3.6 1.1 3.6h1.3l1.5-5.8h-1.5l-.8 3.7-1.1-3.7zm4.1 0V46h1.5v-4.1c.2-.4.5-.5.9-.5.3 0 .5.1.7.2s.2.4.2.7V46h1.5v-3.9c.2-.4.5-.7 1-.7.3 0 .5.1.7.2.1.2.2.4.2.7V46h1.5v-3.7c0-.7-.2-1.3-.5-1.6-.3-.4-.8-.5-1.4-.5-.7 0-1.3.3-1.7.9-.3-.6-.8-.9-1.5-.9s-1.2.3-1.7.8v-.6h-1.4z"/>
</svg>