<svg
        id="root"
        version="1.1"
        viewBox="0 0 64 64"
        fill="currentColor"
        xmlns="http://www.w3.org/2000/svg"
>
    <path d="M55 14.1H9c-.6 0-1 .4-1 1v33.7c0 .6.4 1 1 1h46c.6 0 1-.4 1-1V15.1c0-.5-.4-1-1-1zm-12.5 15l1.2 1.3.4-.3-2-2.2-2 2.2.4.3 1.2-1.3v4.4H23.9v-5.1h4.2l-1.3 1.2.3.4 2.2-2-2.2-2-.3.4 1.3 1.2h-4.2V22H54v11.7H42.5v-4.6zM10 16.3h44v3.5H10v-3.5zm0 5.6h12.9v5.6h-4.2l1.3-1.2-.3-.4-2.2 2 2.2 2 .3-.4-1.3-1.2h4.2v19.5H10V21.9zm13.9 26V34.5h17.5v4l-1.2-1.3-.4.3 2 2.2 2-2.2-.4-.3-1.2 1.3v-4H54v13.4H23.9zM14.2 18c0 .2-.2.4-.4.4h-1.5c-.2 0-.4-.2-.4-.4s.2-.4.4-.4h1.5c.3 0 .4.2.4.4zm6.1 0c0 .2-.2.4-.4.4h-3.4c-.2 0-.4-.2-.4-.4s.2-.4.4-.4h3.4c.2 0 .4.2.4.4zm-4.9 0c0 .2-.2.4-.4.4s-.4-.2-.4-.4.2-.4.4-.4.4.2.4.4zm7.9 0c0 .2-.2.4-.4.4h-1.5c-.2 0-.4-.2-.4-.4s.2-.4.4-.4h1.5c.2 0 .4.2.4.4z"/>
</svg>