<?xml version="1.0" ?>
<svg
        id="root"
        version="1.1"
        viewBox="0 0 64 64"
        fill="currentColor"
        xmlns="http://www.w3.org/2000/svg"
>
    <g>
        <path d="M6,16.5C6,16.2 6.2,16 6.5,16L57.5,16C57.8,16 58,16.2 58,16.5C58,16.8 57.8,17 57.5,17L6.5,17C6.2,17 6,16.8 6,16.5ZM57.5,23L6.5,23C6.2,23 6,23.2 6,23.5C6,23.8 6.2,24 6.5,24L57.5,24C57.8,24 58,23.8 58,23.5C58,23.2 57.8,23 57.5,23ZM17,18.5L17,21.5C17,21.8 17.2,22 17.5,22C17.8,22 18,21.8 18,21.5L18,18.5C18,18.2 17.8,18 17.5,18C17.2,18 17,18.2 17,18.5ZM37,18.5L37,21.5C37,21.8 37.2,22 37.5,22C37.8,22 38,21.8 38,21.5L38,18.5C38,18.2 37.8,18 37.5,18C37.2,18 37,18.2 37,18.5ZM48,18.5L48,21.5C48,21.8 48.2,22 48.5,22C48.8,22 49,21.8 49,21.5L49,18.5C49,18.2 48.8,18 48.5,18C48.2,18 48,18.2 48,18.5ZM34.5,29L20.5,29C20.2,29 20,29.2 20,29.5C20,29.8 20.2,30 20.5,30L34.5,30C34.8,30 35,29.8 35,29.5C35,29.2 34.8,29 34.5,29ZM45.5,29L39.5,29C39.2,29 39,29.2 39,29.5C39,29.8 39.2,30 39.5,30L45.5,30C45.8,30 46,29.8 46,29.5C46,29.2 45.8,29 45.5,29ZM56.5,29L51.5,29C51.2,29 51,29.2 51,29.5C51,29.8 51.2,30 51.5,30L56.5,30C56.8,30 57,29.8 57,29.5C57,29.2 56.8,29 56.5,29ZM7.5,20C7.2,20 7,20.2 7,20.5C7,20.8 7.2,21 7.5,21L15.5,21C15.8,21 16,20.8 16,20.5C16,20.2 15.8,20 15.5,20L7.5,20ZM20.5,20C20.2,20 20,20.2 20,20.5C20,20.8 20.2,21 20.5,21L34.5,21C34.8,21 35,20.8 35,20.5C35,20.2 34.8,20 34.5,20L20.5,20ZM39.5,20C39.2,20 39,20.2 39,20.5C39,20.8 39.2,21 39.5,21L45.5,21C45.8,21 46,20.8 46,20.5C46,20.2 45.8,20 45.5,20L39.5,20ZM51.5,20C51.2,20 51,20.2 51,20.5C51,20.8 51.2,21 51.5,21L56.5,21C56.8,21 57,20.8 57,20.5C57,20.2 56.8,20 56.5,20L51.5,20ZM34.5,35L20.5,35C20.2,35 20,35.2 20,35.5C20,35.8 20.2,36 20.5,36L34.5,36C34.8,36 35,35.8 35,35.5C35,35.2 34.8,35 34.5,35ZM45.5,35L39.5,35C39.2,35 39,35.2 39,35.5C39,35.8 39.2,36 39.5,36L45.5,36C45.8,36 46,35.8 46,35.5C46,35.2 45.8,35 45.5,35ZM56.5,35L51.5,35C51.2,35 51,35.2 51,35.5C51,35.8 51.2,36 51.5,36L56.5,36C56.8,36 57,35.8 57,35.5C57,35.2 56.8,35 56.5,35ZM34.5,41L20.5,41C20.2,41 20,41.2 20,41.5C20,41.8 20.2,42 20.5,42L34.5,42C34.8,42 35,41.8 35,41.5C35,41.2 34.8,41 34.5,41ZM45.5,41L39.5,41C39.2,41 39,41.2 39,41.5C39,41.8 39.2,42 39.5,42L45.5,42C45.8,42 46,41.8 46,41.5C46,41.2 45.8,41 45.5,41ZM56.5,41L51.5,41C51.2,41 51,41.2 51,41.5C51,41.8 51.2,42 51.5,42L56.5,42C56.8,42 57,41.8 57,41.5C57,41.2 56.8,41 56.5,41ZM34.5,47L20.5,47C20.2,47 20,47.2 20,47.5C20,47.8 20.2,48 20.5,48L34.5,48C34.8,48 35,47.8 35,47.5C35,47.2 34.8,47 34.5,47ZM45.5,47L39.5,47C39.2,47 39,47.2 39,47.5C39,47.8 39.2,48 39.5,48L45.5,48C45.8,48 46,47.8 46,47.5C46,47.2 45.8,47 45.5,47ZM56.5,47L51.5,47C51.2,47 51,47.2 51,47.5C51,47.8 51.2,48 51.5,48L56.5,48C56.8,48 57,47.8 57,47.5C57,47.2 56.8,47 56.5,47Z" style="fill-rule:nonzero;"/>
        <path d="M6,16.5C6,16.2 6.2,16 6.5,16L57.5,16C57.8,16 58,16.2 58,16.5C58,16.8 57.8,17 57.5,17L6.5,17C6.2,17 6,16.8 6,16.5ZM57.5,23L6.5,23C6.2,23 6,23.2 6,23.5C6,23.8 6.2,24 6.5,24L57.5,24C57.8,24 58,23.8 58,23.5C58,23.2 57.8,23 57.5,23ZM17,18.5L17,21.5C17,21.8 17.2,22 17.5,22C17.8,22 18,21.8 18,21.5L18,18.5C18,18.2 17.8,18 17.5,18C17.2,18 17,18.2 17,18.5ZM37,18.5L37,21.5C37,21.8 37.2,22 37.5,22C37.8,22 38,21.8 38,21.5L38,18.5C38,18.2 37.8,18 37.5,18C37.2,18 37,18.2 37,18.5ZM48,18.5L48,21.5C48,21.8 48.2,22 48.5,22C48.8,22 49,21.8 49,21.5L49,18.5C49,18.2 48.8,18 48.5,18C48.2,18 48,18.2 48,18.5ZM34.5,29L20.5,29C20.2,29 20,29.2 20,29.5C20,29.8 20.2,30 20.5,30L34.5,30C34.8,30 35,29.8 35,29.5C35,29.2 34.8,29 34.5,29ZM45.5,29L39.5,29C39.2,29 39,29.2 39,29.5C39,29.8 39.2,30 39.5,30L45.5,30C45.8,30 46,29.8 46,29.5C46,29.2 45.8,29 45.5,29ZM56.5,29L51.5,29C51.2,29 51,29.2 51,29.5C51,29.8 51.2,30 51.5,30L56.5,30C56.8,30 57,29.8 57,29.5C57,29.2 56.8,29 56.5,29ZM7.5,20C7.2,20 7,20.2 7,20.5C7,20.8 7.2,21 7.5,21L15.5,21C15.8,21 16,20.8 16,20.5C16,20.2 15.8,20 15.5,20L7.5,20ZM20.5,20C20.2,20 20,20.2 20,20.5C20,20.8 20.2,21 20.5,21L34.5,21C34.8,21 35,20.8 35,20.5C35,20.2 34.8,20 34.5,20L20.5,20ZM39.5,20C39.2,20 39,20.2 39,20.5C39,20.8 39.2,21 39.5,21L45.5,21C45.8,21 46,20.8 46,20.5C46,20.2 45.8,20 45.5,20L39.5,20ZM34.5,35L20.5,35C20.2,35 20,35.2 20,35.5C20,35.8 20.2,36 20.5,36L34.5,36C34.8,36 35,35.8 35,35.5C35,35.2 34.8,35 34.5,35ZM45.5,35L39.5,35C39.2,35 39,35.2 39,35.5C39,35.8 39.2,36 39.5,36L45.5,36C45.8,36 46,35.8 46,35.5C46,35.2 45.8,35 45.5,35ZM56.5,35L51.5,35C51.2,35 51,35.2 51,35.5C51,35.8 51.2,36 51.5,36L56.5,36C56.8,36 57,35.8 57,35.5C57,35.2 56.8,35 56.5,35ZM34.5,41L20.5,41C20.2,41 20,41.2 20,41.5C20,41.8 20.2,42 20.5,42L34.5,42C34.8,42 35,41.8 35,41.5C35,41.2 34.8,41 34.5,41ZM45.5,41L39.5,41C39.2,41 39,41.2 39,41.5C39,41.8 39.2,42 39.5,42L45.5,42C45.8,42 46,41.8 46,41.5C46,41.2 45.8,41 45.5,41ZM56.5,41L51.5,41C51.2,41 51,41.2 51,41.5C51,41.8 51.2,42 51.5,42L56.5,42C56.8,42 57,41.8 57,41.5C57,41.2 56.8,41 56.5,41ZM34.5,47L20.5,47C20.2,47 20,47.2 20,47.5C20,47.8 20.2,48 20.5,48L34.5,48C34.8,48 35,47.8 35,47.5C35,47.2 34.8,47 34.5,47ZM45.5,47L39.5,47C39.2,47 39,47.2 39,47.5C39,47.8 39.2,48 39.5,48L45.5,48C45.8,48 46,47.8 46,47.5C46,47.2 45.8,47 45.5,47ZM56.5,47L51.5,47C51.2,47 51,47.2 51,47.5C51,47.8 51.2,48 51.5,48L56.5,48C56.8,48 57,47.8 57,47.5C57,47.2 56.8,47 56.5,47Z" style="fill-rule:nonzero;"/>
        <path d="M34.5,29L20.5,29C20.2,29 20,29.2 20,29.5C20,29.8 20.2,30 20.5,30L34.5,30C34.8,30 35,29.8 35,29.5C35,29.2 34.8,29 34.5,29ZM45.5,29L39.5,29C39.2,29 39,29.2 39,29.5C39,29.8 39.2,30 39.5,30L45.5,30C45.8,30 46,29.8 46,29.5C46,29.2 45.8,29 45.5,29ZM56.5,29L51.5,29C51.2,29 51,29.2 51,29.5C51,29.8 51.2,30 51.5,30L56.5,30C56.8,30 57,29.8 57,29.5C57,29.2 56.8,29 56.5,29ZM34.5,35L20.5,35C20.2,35 20,35.2 20,35.5C20,35.8 20.2,36 20.5,36L34.5,36C34.8,36 35,35.8 35,35.5C35,35.2 34.8,35 34.5,35ZM45.5,35L39.5,35C39.2,35 39,35.2 39,35.5C39,35.8 39.2,36 39.5,36L45.5,36C45.8,36 46,35.8 46,35.5C46,35.2 45.8,35 45.5,35ZM56.5,35L51.5,35C51.2,35 51,35.2 51,35.5C51,35.8 51.2,36 51.5,36L56.5,36C56.8,36 57,35.8 57,35.5C57,35.2 56.8,35 56.5,35ZM34.5,41L20.5,41C20.2,41 20,41.2 20,41.5C20,41.8 20.2,42 20.5,42L34.5,42C34.8,42 35,41.8 35,41.5C35,41.2 34.8,41 34.5,41ZM45.5,41L39.5,41C39.2,41 39,41.2 39,41.5C39,41.8 39.2,42 39.5,42L45.5,42C45.8,42 46,41.8 46,41.5C46,41.2 45.8,41 45.5,41ZM56.5,41L51.5,41C51.2,41 51,41.2 51,41.5C51,41.8 51.2,42 51.5,42L56.5,42C56.8,42 57,41.8 57,41.5C57,41.2 56.8,41 56.5,41ZM34.5,47L20.5,47C20.2,47 20,47.2 20,47.5C20,47.8 20.2,48 20.5,48L34.5,48C34.8,48 35,47.8 35,47.5C35,47.2 34.8,47 34.5,47ZM45.5,47L39.5,47C39.2,47 39,47.2 39,47.5C39,47.8 39.2,48 39.5,48L45.5,48C45.8,48 46,47.8 46,47.5C46,47.2 45.8,47 45.5,47ZM56.5,47L51.5,47C51.2,47 51,47.2 51,47.5C51,47.8 51.2,48 51.5,48L56.5,48C56.8,48 57,47.8 57,47.5C57,47.2 56.8,47 56.5,47Z" style="fill-rule:nonzero;"/>
        <path d="M13.411,47.456L14.615,47.437L14.604,47.456L13.411,47.456L10.684,47.5L10.684,47.456L13.411,47.456ZM10.684,47.456L10.653,47.456L10.653,42L10.684,47.456ZM13.411,41.456L14.615,41.437L14.604,41.456L13.411,41.456L10.684,41.5L10.684,41.456L13.411,41.456ZM10.684,41.456L10.653,41.456L10.653,36L10.684,41.456ZM13.411,35.452L14.615,35.431L14.604,35.452L13.411,35.452L10.684,35.5L10.684,35.452L13.411,35.452ZM10.684,35.452L10.653,35.452L10.653,29.5L10.684,35.452ZM9.449,29.496L10.653,29.494L10.642,29.496L9.449,29.496L6.722,29.5L6.69,29.5L6.69,29.496L9.449,29.496Z" style="fill:rgb(235,235,235);stroke:black;stroke-width:0.96px;"/>
    </g>
</svg>