<svg
        id="root"
        version="1.1"
        viewBox="0 0 180 180"
        fill="currentColor"
        xmlns="http://www.w3.org/2000/svg"
>
<g id="root_1_">
	<path d="M26.156,54.281l1.406-11.25h12.375v3.656h-9l-0.563,4.781c1.125-0.563,2.25-0.844,3.375-0.844
		c1.969,0,3.656,0.563,5.063,1.969s1.688,3.094,1.688,5.344c0,1.406-0.281,2.813-0.844,3.938s-1.406,1.969-2.531,2.531
		s-2.531,0.844-3.938,0.844s-2.531-0.281-3.656-0.844s-1.969-1.406-2.813-2.25c-0.563-0.844-1.125-1.969-1.125-3.375h4.219
		c0,0.844,0.281,1.688,0.844,2.25s1.406,0.844,2.25,0.844c1.125,0,1.688-0.281,2.25-1.125S36,59.063,36,57.656
		c0-1.125-0.281-2.25-0.844-2.813s-1.406-1.125-2.531-1.125S30.656,54,30.094,54.563l-0.563,0.281L26.156,54.281z M44.719,66.938
		h-3.375L49.5,43.031h3.375L44.719,66.938z M69.188,48.938c0,1.125-0.281,1.969-0.844,2.813s-1.406,1.406-2.25,1.969
		c1.125,0.563,1.969,1.125,2.531,2.25c0.563,0.844,0.844,1.969,0.844,3.094c0,1.969-0.563,3.375-1.969,4.5s-3.094,1.688-5.344,1.688
		s-4.219-0.563-5.344-1.688s-1.969-2.813-1.969-4.5c0-1.125,0.281-2.25,0.844-3.094s1.406-1.688,2.531-2.25
		c-0.844-0.563-1.688-1.125-2.25-1.969s-0.844-1.688-0.844-2.813c0-1.969,0.563-3.375,1.969-4.5
		c1.125-1.125,2.813-1.688,5.063-1.688s3.938,0.563,5.063,1.688C68.625,45.563,69.188,46.969,69.188,48.938z M65.25,58.781
		c0-0.844-0.281-1.688-0.844-2.25s-1.406-0.844-2.25-0.844s-1.688,0.281-2.25,0.844s-0.844,1.406-0.844,2.25s0.281,1.688,0.844,2.25
		s1.406,0.844,2.25,0.844s1.688-0.281,2.25-0.844S65.25,59.625,65.25,58.781z M64.688,49.219c0-0.844-0.281-1.406-0.563-1.969
		c-0.563-0.563-1.125-0.844-1.969-0.844s-1.406,0.281-1.969,0.844s-0.563,1.125-0.563,1.969s0.281,1.688,0.563,2.25
		s1.125,0.844,1.969,0.844s1.406-0.281,1.969-0.844C64.406,50.625,64.688,50.063,64.688,49.219z M73.969,66.938h-3.375l8.156-23.906
		h3.375L73.969,66.938z M94.781,64.969h-4.5V48.094l-5.344,1.688v-3.656l9-3.375H94.5v22.219H94.781z M116.156,48.938
		c0,1.125-0.281,1.969-0.844,2.813s-1.406,1.406-2.25,1.969c1.125,0.563,1.969,1.125,2.531,2.25
		c0.563,0.844,0.844,1.969,0.844,3.094c0,1.969-0.563,3.375-1.969,4.5s-3.094,1.688-5.344,1.688s-4.219-0.563-5.344-1.688
		s-1.969-2.813-1.969-4.5c0-1.125,0.281-2.25,0.844-3.094s1.406-1.688,2.531-2.25c-0.844-0.563-1.688-1.125-2.25-1.969
		s-0.844-1.688-0.844-2.813c0-1.969,0.563-3.375,1.969-4.5c1.125-1.125,2.813-1.688,5.063-1.688s3.938,0.563,5.063,1.688
		C115.594,45.563,116.156,46.969,116.156,48.938z M112.219,58.781c0-0.844-0.281-1.688-0.844-2.25s-1.406-0.844-2.25-0.844
		s-1.688,0.281-2.25,0.844s-0.844,1.406-0.844,2.25s0.281,1.688,0.844,2.25s1.406,0.844,2.25,0.844s1.688-0.281,2.25-0.844
		S112.219,59.625,112.219,58.781z M111.938,49.219c0-0.844-0.281-1.406-0.563-1.969c-0.563-0.563-1.125-0.844-1.969-0.844
		s-1.406,0.281-1.969,0.844s-0.563,1.125-0.563,1.969s0.281,1.688,0.563,2.25c0.563,0.563,1.125,0.844,1.969,0.844
		s1.406-0.281,1.969-0.844S111.938,50.063,111.938,49.219z M146.25,64.688c-0.844,0-1.406-0.281-1.969-0.844l-11.25-11.25
		c-1.125-1.125-1.125-2.813,0-3.938s2.813-1.125,3.938,0l9.281,9.281l9.281-9.281c1.125-1.125,2.813-1.125,3.938,0
		s1.125,2.813,0,3.938l-11.25,11.25C147.656,64.406,147.094,64.688,146.25,64.688z M158.906,68.906H22.5
		c-2.25,0-4.219,1.969-4.219,4.219c0,1.969,1.125,3.375,2.813,3.938v63.563c0,0.844,0.563,1.406,1.406,1.406h120.938
		c0.844,0,1.406-0.563,1.406-1.406V77.344h14.063c2.25,0,4.219-1.969,4.219-4.219S161.156,68.906,158.906,68.906z M142.031,139.219
		H23.906V77.344h118.125V139.219z"/>
	<path d="M81.615,105.564l0.009-4.781l4.781,0.01l-0.009,4.781L81.615,105.564z"/>
	<path d="M89.93,105.495l0.009-4.781l4.782,0.01l-0.01,4.781L89.93,105.495z"/>
	<path d="M98.271,105.722l0.009-4.781l4.781,0.009l-0.009,4.781L98.271,105.722z"/>
	<path d="M64.896,113.275l0.01-4.781l4.781,0.01l-0.01,4.781L64.896,113.275z"/>
	<path d="M73.237,113.205l0.01-4.781l4.781,0.009l-0.01,4.781L73.237,113.205z"/>
	<path d="M81.579,113.144l0.009-4.781l4.781,0.01l-0.009,4.781L81.579,113.144z"/>
	<path d="M64.867,120.873l0.01-4.781l4.781,0.01l-0.01,4.781L64.867,120.873z"/>
	<path d="M73.208,120.809l0.01-4.781l4.781,0.01l-0.01,4.781L73.208,120.809z"/>
	<path d="M64.87,128.453l0.01-4.781l4.781,0.01l-0.01,4.781L64.87,128.453z"/>
	<path d="M73.191,128.4l0.01-4.781l4.781,0.01l-0.01,4.781L73.191,128.4z"/>
	<ellipse cx="102.375" cy="114.188" rx="1.125" ry="1.125"/>
	<ellipse cx="102.375" cy="136.406" rx="1.125" ry="1.125"/>
	<ellipse cx="113.625" cy="125.438" rx="1.125" ry="1.125"/>
	<ellipse cx="91.406" cy="125.438" rx="1.125" ry="1.125"/>
	<path d="M108.844,130.219l-4.781-4.5v-6.469c0-0.844-0.563-1.406-1.406-1.406s-1.406,0.563-1.406,1.406v4.781
		h-5.906c-0.844,0-1.406,0.563-1.406,1.406s0.563,1.406,1.406,1.406h7.594l4.781,4.5c0,0,0.281,0.281,0.563,0.281
		s0.281,0,0.563-0.281C109.125,130.781,109.125,130.5,108.844,130.219L108.844,130.219z"/>
	<path d="M111.938,108.844V89.156c0-3.094-2.531-5.344-5.344-5.344h-2.531v-2.25c0-1.688-1.125-2.813-2.813-2.813
		s-2.813,1.125-2.813,2.813v2.25H71.156v-2.25c0-1.688-1.125-2.813-2.813-2.813s-2.813,1.125-2.813,2.813v2.25h-3.656
		c-3.094,0-5.344,2.531-5.344,5.344v39.938c0,3.094,2.531,5.344,5.344,5.344h24.75C90,140.063,95.906,144,102.938,144
		c10.406,0,18.844-8.438,18.844-18.844C121.219,118.406,117.563,112.219,111.938,108.844z M61.594,89.438h3.656v1.969
		c0,1.688,1.125,2.813,2.813,2.813s2.813-1.125,2.813-2.813v-1.969h27.281v1.688c0,1.688,1.125,2.813,2.813,2.813
		s2.813-1.125,2.813-2.813v-1.688h2.531v5.344H61.594V89.438z M86.063,116.156h-4.5v4.781h2.531c-0.281,1.406-0.563,3.094-0.563,4.5
		v3.656h-22.5v-28.969h44.438v6.469h-0.563c-0.281,0-0.844,0-1.125-0.281h-1.969c-3.094,0-5.906,0.844-8.438,1.969h-3.938v2.813
		C88.313,112.781,87.188,114.188,86.063,116.156z M102.375,138.656c-5.344,0-10.125-3.375-12.094-7.875
		c-0.281-0.844-0.563-1.406-0.844-2.25v-0.281c-0.281-0.844-0.281-1.688-0.281-2.813c0-7.313,5.906-13.219,13.219-13.219
		c0.844,0,1.688,0,2.813,0.281h0.281c0.844,0.281,1.406,0.281,2.25,0.844c4.781,1.969,7.875,6.75,7.875,12.094
		C115.594,132.75,109.688,138.656,102.375,138.656z"/>
</g>
</svg>
