<svg
        id="root"
        version="1.1"
        viewBox="0 0 64 64"
        fill="currentColor"
        xmlns="http://www.w3.org/2000/svg"
>
    <path d="M56 44.1H8c-.8 0-1.5-.7-1.5-1.5s.7-1.5 1.5-1.5h48c.8 0 1.5.7 1.5 1.5s-.7 1.5-1.5 1.5zm-43.5-6.5v-17c0-.3-.2-.5-.5-.5s-.5.2-.5.5v17c0 .3.2.5.5.5s.5-.3.5-.5zm12.8-15.8H25l-6.8 2.4v2.6l3.9-1.2v12.5h3.2V21.8zm16.5 13.8h-7l3.7-3.9c1-1.1 1.7-2.1 2.2-2.9s.6-1.7.6-2.5c0-1.5-.5-2.6-1.4-3.4-.9-.9-2.3-1.3-3.9-1.3-1.1 0-2.1.2-3 .7-.9.5-1.5 1.1-2 1.9s-.7 1.8-.7 2.8h3.3c0-.8.2-1.5.6-2 .4-.5 1-.8 1.7-.8s1.2.2 1.6.6c.4.4.6 1 .6 1.7 0 .5-.2 1.1-.5 1.7-.3.6-.9 1.3-1.6 2.1L30.6 36v2.2h11.2v-2.6z"/>
</svg>