<svg
        id="root"
        version="1.1"
        viewBox="0 0 64 64"
        fill="currentColor"
        xmlns="http://www.w3.org/2000/svg"
>
    <path d="M6 16.5c0-.3.2-.5.5-.5h51c.3 0 .5.2.5.5s-.2.5-.5.5h-51c-.3 0-.5-.2-.5-.5zM57.5 23h-51c-.3 0-.5.2-.5.5s.2.5.5.5h51c.3 0 .5-.2.5-.5s-.2-.5-.5-.5zM17 18.5v3c0 .3.2.5.5.5s.5-.2.5-.5v-3c0-.3-.2-.5-.5-.5s-.5.2-.5.5zm20 0v3c0 .3.2.5.5.5s.5-.2.5-.5v-3c0-.3-.2-.5-.5-.5s-.5.2-.5.5zm11 0v3c0 .3.2.5.5.5s.5-.2.5-.5v-3c0-.3-.2-.5-.5-.5s-.5.2-.5.5zM15.5 29h-8c-.3 0-.5.2-.5.5s.2.5.5.5h8c.3 0 .5-.2.5-.5s-.2-.5-.5-.5zm19 0h-14c-.3 0-.5.2-.5.5s.2.5.5.5h14c.3 0 .5-.2.5-.5s-.2-.5-.5-.5zm11 0h-6c-.3 0-.5.2-.5.5s.2.5.5.5h6c.3 0 .5-.2.5-.5s-.2-.5-.5-.5zm11 0h-5c-.3 0-.5.2-.5.5s.2.5.5.5h5c.3 0 .5-.2.5-.5s-.2-.5-.5-.5zm-49-9c-.3 0-.5.2-.5.5s.2.5.5.5h8c.3 0 .5-.2.5-.5s-.2-.5-.5-.5h-8zm13 0c-.3 0-.5.2-.5.5s.2.5.5.5h14c.3 0 .5-.2.5-.5s-.2-.5-.5-.5h-14zm19 0c-.3 0-.5.2-.5.5s.2.5.5.5h6c.3 0 .5-.2.5-.5s-.2-.5-.5-.5h-6zm12 0c-.3 0-.5.2-.5.5s.2.5.5.5h5c.3 0 .5-.2.5-.5s-.2-.5-.5-.5h-5zm-36 15h-8c-.3 0-.5.2-.5.5s.2.5.5.5h8c.3 0 .5-.2.5-.5s-.2-.5-.5-.5zm19 0h-14c-.3 0-.5.2-.5.5s.2.5.5.5h14c.3 0 .5-.2.5-.5s-.2-.5-.5-.5zm11 0h-6c-.3 0-.5.2-.5.5s.2.5.5.5h6c.3 0 .5-.2.5-.5s-.2-.5-.5-.5zm11 0h-5c-.3 0-.5.2-.5.5s.2.5.5.5h5c.3 0 .5-.2.5-.5s-.2-.5-.5-.5zm-41 6h-8c-.3 0-.5.2-.5.5s.2.5.5.5h8c.3 0 .5-.2.5-.5s-.2-.5-.5-.5zm19 0h-14c-.3 0-.5.2-.5.5s.2.5.5.5h14c.3 0 .5-.2.5-.5s-.2-.5-.5-.5zm11 0h-6c-.3 0-.5.2-.5.5s.2.5.5.5h6c.3 0 .5-.2.5-.5s-.2-.5-.5-.5zm11 0h-5c-.3 0-.5.2-.5.5s.2.5.5.5h5c.3 0 .5-.2.5-.5s-.2-.5-.5-.5zm-41 6h-8c-.3 0-.5.2-.5.5s.2.5.5.5h8c.3 0 .5-.2.5-.5s-.2-.5-.5-.5zm19 0h-14c-.3 0-.5.2-.5.5s.2.5.5.5h14c.3 0 .5-.2.5-.5s-.2-.5-.5-.5zm11 0h-6c-.3 0-.5.2-.5.5s.2.5.5.5h6c.3 0 .5-.2.5-.5s-.2-.5-.5-.5zm11 0h-5c-.3 0-.5.2-.5.5s.2.5.5.5h5c.3 0 .5-.2.5-.5s-.2-.5-.5-.5z"/>
</svg>