<?xml version="1.0" encoding="UTF-8" standalone="no"?>
<!DOCTYPE svg PUBLIC "-//W3C//DTD SVG 1.1//EN" "http://www.w3.org/Graphics/SVG/1.1/DTD/svg11.dtd">
<svg width="100%" height="100%" viewBox="0 0 512 512" version="1.1" xmlns="http://www.w3.org/2000/svg" xmlns:xlink="http://www.w3.org/1999/xlink" xml:space="preserve" xmlns:serif="http://www.serif.com/" style="fill-rule:evenodd;clip-rule:evenodd;stroke-linejoin:round;stroke-miterlimit:2;">
    <path d="M415.711,493.246L406.195,322.379C405.473,309.473 396.449,298.539 383.914,295.383L359.633,289.273C360.668,293.797 359.262,298.719 355.645,302.004C340.289,315.934 305.289,361.844 256.367,361.844C207.441,361.844 172.441,315.934 157.086,302.004C153.469,298.719 152.063,293.797 153.098,289.273L128.813,295.383C116.281,298.539 107.254,309.477 106.539,322.379L97.02,493.246C96.602,500.715 102.547,506.996 110.027,506.996L402.703,506.996C410.18,507 416.129,500.715 415.711,493.246Z" style="fill:rgb(232,230,230);fill-rule:nonzero;"/>
    <path d="M256.367,361.844C252.23,361.844 248.203,361.492 244.27,360.883L244.27,412.242C244.27,418.926 249.684,424.34 256.367,424.34C263.047,424.34 268.461,418.926 268.461,412.242L268.461,360.883C264.531,361.488 260.5,361.844 256.367,361.844Z" style="fill:rgb(232,230,230);fill-rule:nonzero;"/>
    <path d="M340.73,249.316C338.988,243.465 339.523,237.133 342.293,231.695C354.199,208.313 361.199,179.859 361.199,149.148C361.203,69.539 314.262,5 256.367,5C198.469,5 151.531,69.539 151.531,149.148C151.531,179.859 158.531,208.309 170.437,231.691C173.207,237.129 173.738,243.465 172,249.313C168.758,260.215 163.535,272.91 155.148,284.656C151.297,290.055 152.172,297.543 157.086,301.996C172.441,315.93 207.441,361.84 256.363,361.84C305.289,361.84 340.289,315.93 355.641,301.996C360.555,297.543 361.43,290.055 357.578,284.656C349.195,272.91 343.973,260.219 340.73,249.316Z" style="fill:rgb(63,51,87);fill-rule:nonzero;"/>
    <path d="M330.945,120.793L330.945,175.023C330.945,216.043 297.383,257.625 256.367,257.625C215.348,257.625 181.785,216.039 181.785,175.023L181.785,120.793C222.324,82.371 288.855,84.074 330.945,120.793Z" style="fill:rgb(195,161,136);fill-rule:nonzero;"/>
    <path d="M330.949,120.793L299.504,75.195C277.602,48.559 236.621,49.203 215.57,76.516L181.785,120.793C222.324,82.371 288.855,84.074 330.949,120.793Z" style="fill:rgb(232,230,230);fill-rule:nonzero;"/>
    <g>
        <path d="M256.492,219.57C250.238,219.57 244.543,217.359 240.859,213.504C238.949,211.504 239.023,208.34 241.02,206.434C243.016,204.523 246.184,204.598 248.09,206.594C249.84,208.43 253.063,209.57 256.492,209.57C259.922,209.57 263.145,208.43 264.895,206.598C266.805,204.598 269.965,204.523 271.965,206.434C273.965,208.34 274.035,211.504 272.129,213.504C268.445,217.359 262.746,219.57 256.492,219.57Z" style="fill:rgb(35,31,32);fill-rule:nonzero;"/>
        <path d="M293.707,147.699C292.914,147.699 292.109,147.512 291.363,147.113C290.098,146.445 287.203,145.766 283.582,145.766C279.961,145.766 277.066,146.445 275.801,147.113C273.363,148.41 270.336,147.484 269.039,145.047C267.742,142.609 268.668,139.582 271.105,138.285C274.117,136.684 278.664,135.766 283.578,135.766C288.496,135.766 293.043,136.684 296.055,138.285C298.492,139.582 299.418,142.609 298.121,145.047C297.227,146.738 295.492,147.699 293.707,147.699Z" style="fill:rgb(35,31,32);fill-rule:nonzero;"/>
        <path d="M239.27,147.699C238.48,147.699 237.676,147.512 236.926,147.113C235.664,146.445 232.77,145.766 229.148,145.766C225.527,145.766 222.633,146.445 221.367,147.113C218.93,148.41 215.902,147.484 214.605,145.047C213.309,142.609 214.234,139.582 216.672,138.285C219.684,136.684 224.23,135.766 229.145,135.766C234.063,135.766 238.609,136.684 241.621,138.285C244.059,139.582 244.984,142.609 243.684,145.047C242.793,146.738 241.063,147.699 239.27,147.699Z" style="fill:rgb(35,31,32);fill-rule:nonzero;"/>
        <path d="M229.957,167.281C226.641,167.281 223.957,164.598 223.957,161.281L223.957,160.176C223.957,156.859 226.641,154.176 229.957,154.176C233.27,154.176 235.957,156.859 235.957,160.176L235.957,161.281C235.957,164.594 233.27,167.281 229.957,167.281Z" style="fill:rgb(35,31,32);fill-rule:nonzero;"/>
        <path d="M283.031,168.129C279.715,168.129 277.031,165.445 277.031,162.129L277.031,161.023C277.031,157.707 279.715,155.023 283.031,155.023C286.344,155.023 289.031,157.707 289.031,161.023L289.031,162.129C289.031,165.445 286.34,168.129 283.031,168.129Z" style="fill:rgb(35,31,32);fill-rule:nonzero;"/>
        <path d="M357.781,509.199C355.02,509.199 352.781,506.961 352.781,504.199L352.781,393.531C352.781,390.77 355.02,388.531 357.781,388.531C360.543,388.531 362.781,390.77 362.781,393.531L362.781,504.199C362.781,506.961 360.543,509.199 357.781,509.199Z" style="fill:rgb(35,31,32);fill-rule:nonzero;"/>
        <path d="M154.949,509.199C152.188,509.199 149.949,506.961 149.949,504.199L149.949,393.531C149.949,390.77 152.188,388.531 154.949,388.531C157.711,388.531 159.949,390.77 159.949,393.531L159.949,504.199C159.949,506.961 157.711,509.199 154.949,509.199Z" style="fill:rgb(35,31,32);fill-rule:nonzero;"/>
        <path d="M259.918,314.227C247.984,314.227 236.207,309.914 224.758,301.328C222.551,299.672 222.098,296.535 223.758,294.328C225.414,292.121 228.551,291.672 230.758,293.328C244.004,303.262 257.004,306.371 270.512,302.824C309.68,292.547 337.813,229.426 338.094,228.789C339.207,226.262 342.148,225.109 344.684,226.219C347.211,227.328 348.363,230.277 347.254,232.805C346.035,235.586 316.91,300.973 273.07,312.492C268.672,313.648 264.285,314.227 259.918,314.227Z" style="fill:rgb(35,31,32);fill-rule:nonzero;"/>
        <path d="M402.703,512L110.027,512C105.094,512 100.32,509.945 96.93,506.359C93.539,502.777 91.754,497.895 92.027,492.969L101.547,322.102C102.391,306.93 112.859,294.242 127.594,290.535L151.879,284.422C153.566,284.004 155.352,284.48 156.598,285.699C157.84,286.914 158.363,288.691 157.973,290.387C157.309,293.281 158.258,296.309 160.449,298.297C163.066,300.676 166.145,303.848 169.711,307.527C187.59,325.973 217.52,356.844 256.367,356.844C295.211,356.844 325.141,325.969 343.02,307.527C346.586,303.848 349.668,300.672 352.285,298.297C354.473,296.313 355.422,293.281 354.758,290.391C354.367,288.695 354.887,286.918 356.133,285.699C357.375,284.48 359.164,283.996 360.852,284.426L385.137,290.535C399.871,294.242 410.34,306.93 411.184,322.102L420.703,492.969C420.977,497.895 419.191,502.777 415.797,506.359C412.41,509.945 407.637,512 402.703,512ZM148.098,295.688L130.035,300.23C119.566,302.867 112.133,311.879 111.531,322.656L102.012,493.523C101.891,495.75 102.664,497.867 104.199,499.484C105.73,501.105 107.801,501.996 110.031,501.996L402.703,501.996C404.934,501.996 407.004,501.105 408.539,499.484C410.07,497.867 410.844,495.746 410.723,493.523L401.203,322.652C400.602,311.875 393.164,302.863 382.699,300.23L364.637,295.684C363.898,299.484 361.961,303.02 359.004,305.703C356.625,307.863 353.648,310.93 350.203,314.484C331.219,334.066 299.449,366.844 256.367,366.844C213.289,366.844 181.516,334.066 162.531,314.484C159.086,310.934 156.109,307.863 153.73,305.703C150.77,303.023 148.832,299.484 148.098,295.688Z" style="fill:rgb(35,31,32);fill-rule:nonzero;"/>
        <path d="M256.367,429.34C246.941,429.34 239.27,421.672 239.27,412.242L239.27,360.883C239.27,359.422 239.906,358.035 241.016,357.086C242.125,356.137 243.594,355.719 245.035,355.941C252.871,357.156 259.863,357.156 267.699,355.941C269.137,355.723 270.609,356.137 271.719,357.086C272.824,358.035 273.465,359.422 273.465,360.883L273.465,412.242C273.461,421.672 265.793,429.34 256.367,429.34ZM249.27,366.527L249.27,412.242C249.27,416.156 252.453,419.34 256.367,419.34C260.277,419.34 263.461,416.156 263.461,412.242L263.461,366.527C258.688,366.949 254.043,366.949 249.27,366.527Z" style="fill:rgb(35,31,32);fill-rule:nonzero;"/>
        <path d="M256.367,366.844C213.285,366.844 181.512,334.066 162.531,314.484C159.082,310.934 156.109,307.863 153.73,305.703C146.898,299.508 145.762,289.211 151.082,281.754C157.973,272.102 163.398,260.707 167.211,247.887C168.605,243.199 168.168,238.254 165.984,233.961C153.258,208.973 146.531,179.645 146.531,149.145C146.531,66.906 195.801,0 256.367,0C316.93,0 366.199,66.906 366.199,149.148C366.199,179.645 359.473,208.973 346.746,233.961C344.559,238.254 344.125,243.199 345.52,247.887C349.332,260.707 354.758,272.102 361.645,281.754C366.969,289.211 365.828,299.504 359,305.703C356.621,307.863 353.645,310.93 350.199,314.484C331.219,334.07 299.445,366.844 256.367,366.844ZM256.367,10C201.316,10 156.531,72.422 156.531,149.148C156.531,178.074 162.883,205.836 174.895,229.426C178.25,236.012 178.926,243.578 176.797,250.738C172.668,264.621 166.754,277.012 159.223,287.563C156.848,290.895 157.375,295.508 160.449,298.297C163.066,300.672 166.145,303.848 169.711,307.523C187.59,325.969 217.52,356.84 256.367,356.84C295.211,356.84 325.141,325.969 343.02,307.523C346.586,303.848 349.668,300.672 352.285,298.297C355.359,295.508 355.887,290.891 353.508,287.562C345.977,277.012 340.063,264.621 335.934,250.738C333.809,243.578 334.48,236.012 337.836,229.422C349.848,205.832 356.199,178.07 356.199,149.145C356.199,72.422 311.414,10 256.367,10Z" style="fill:rgb(35,31,32);fill-rule:nonzero;"/>
        <path d="M256.367,262.625C210.816,262.625 176.785,216.375 176.785,175.023L176.785,120.793C176.785,119.422 177.348,118.109 178.344,117.164C198.695,97.875 226.203,87.309 255.82,87.617C284.906,87.848 312.754,98.289 334.234,117.027C335.32,117.977 335.945,119.352 335.945,120.797L335.945,175.023C335.949,216.375 301.914,262.625 256.367,262.625ZM186.785,122.977L186.785,175.023C186.785,219.438 223.52,252.625 256.367,252.625C289.211,252.625 325.949,219.438 325.949,175.023L325.949,123.102C285.527,89.332 224.043,89.277 186.785,122.977Z" style="fill:rgb(35,31,32);fill-rule:nonzero;"/>
        <path d="M330.949,125.793C329.777,125.793 328.602,125.383 327.66,124.563C286.719,88.848 222.82,88.785 185.223,124.426C183.332,126.215 180.383,126.254 178.441,124.516C176.504,122.773 176.227,119.836 177.809,117.762L211.594,73.48C222.578,59.23 239.176,50.906 257.141,50.625C275.07,50.328 291.953,58.141 303.367,72.02C303.453,72.129 303.539,72.238 303.621,72.355L335.063,117.957C336.492,120.031 336.156,122.848 334.273,124.523C333.328,125.371 332.137,125.793 330.949,125.793ZM254.852,87.613C255.18,87.613 255.496,87.613 255.824,87.617C275.508,87.773 294.625,92.609 311.586,101.523L295.512,78.211C286.047,66.797 272.102,60.395 257.301,60.625C242.395,60.859 228.629,67.762 219.531,79.566L204.789,98.887C219.949,91.512 237.008,87.613 254.852,87.613Z" style="fill:rgb(35,31,32);fill-rule:nonzero;"/>
    </g>
</svg>
